<svg version="1.0" xmlns="http://www.w3.org/2000/svg" width="840" height="460" viewBox="0 0 840 460"><path d="M0 230V0h840v460H0V230z" fill="#7e6da7"/><path d="M314 359.4v-3.5l9 .3 9 .3v-3.1c0-3.9 3.2-8.1 7-9.1l2.9-.8-11.4-21.5c-7.7-14.4-11.5-22.6-11.5-24.7 0-2.8 2.8-7.4 7-11.3.3-.3 3.8-4 7.8-8.2l7.2-7.7v-6.3c0-3.5-.9-16.3-2.1-28.6-1.5-16-1.8-22.7-1-23.6.8-1-1.4-3.3-9.7-9.9-6-4.7-11.5-9.3-12.2-10.2-.7-.9-1.9-6-2.6-11.3-1.7-12.7-1.7-13.2.2-13.2 1.4 0 1.5-1.4.9-12.2-.4-7.5-1.3-13.6-2.2-15.5-1.4-3-1.4-3.6.1-6.7 2.2-4.6 3.9-5.8 7.8-5.4 3.3.3 3.3.2 3-3.4-.3-3.3-.1-3.8 1.7-3.8 1.1 0 2.4.6 2.8 1.4.6 1 7.7-3 30-17.1l29.2-18.4 8.1 1.2c4.4.6 8 1.3 8 1.5 0 .2-1.6 3.6-3.6 7.6l-3.6 7.3-31.2 14.1c-27.7 12.6-31.1 14.4-30.8 16.3.4 2.8-2.6 4-4.3 1.8-2.2-3.1-3.3-1.8-4 4.8-.9 8.6.4 26.5 1.9 26.2.7-.1 1.3 2.7 1.6 7.9l.5 8.2 10.5 8.4c9.6 7.7 10.7 8.3 12.8 7.2 2.4-1.2 2.4-1.2-1.2-2.4-4-1.3-8.3-5.8-9.3-9.8-.3-1.5-2.1-4.5-3.9-6.6-3.2-3.7-3.6-6.3-.9-5.2.9.3 1.2-.3 1.1-1.7-.9-7.1-2-10.7-3.8-12.4-2.6-2.3-4.8-6.6-4.8-9.4 0-2 .4-2.1 4.4-1.5 3.4.5 5.1.2 7.9-1.4 2.2-1.3 6.1-2.3 10.4-2.7 6.5-.5 7-.4 9.9 2.3 2.4 2.2 3.5 4.6 4.8 10.4 1 4.1 2.5 9.7 3.4 12.3 1.5 4.3 1.5 5 .2 6-.9.7-1.6 3.2-1.7 6.2-.1 2.8-.4 6.8-.8 9-.3 2.2-.2 4.6.3 5.3.5.7 3.5 1.7 6.7 2.1 4.2.6 6.4 1.4 7.7 3.1 1 1.2 1.8 1.7 1.8 1.1 0-.7 2.1-1.1 5.5-1.1h5.4l1.1-3.8c1.6-6.1 4.9-8.5 12.5-9 7.5-.5 8.2-1.7 3.4-6-2.4-2.2-3.2-3.8-3.6-7.7-.3-2.8-1.2-5.4-1.9-5.8-1.6-.9-1.9-6.7-.4-6.7.6 0 1-4.3 1-10.9 0-15.6-.1-15.5 17.5-15.9l13.8-.4-.5 13.6c-.4 10.6-.2 13.6.9 14 1.7.7 1.7 4-.1 5.5-.7.6-1.6 3.3-2 6-.7 5-3.7 10.1-6.1 10.1-.7 0-1.2.8-1.1 1.8.2 1.4 1.6 1.8 6.9 2.2 7.7.6 11.1 3 12.7 9.2 1 3.5 1.4 3.8 4.5 3.8 3.5 0 3.5 0 3.6 4.8l.1 4.7.9-4.5c1.2-5.9 3.9-7.9 10.6-8 4.9 0 5.2-.1 5.8-3.1.5-2.1.1-4.4-1-7-1.4-3.1-1.6-4.8-.8-8.7.7-3.6.6-5.1-.3-6-.9-.8-1-2-.4-3.9.5-1.6 1.6-6.3 2.5-10.5 1.9-8.9 4.1-12.2 9.1-13.8 5.3-1.8 16.3 1.1 20.4 5.3 4.1 4.2 4.5 6.3 2.7 14.1-1.4 6-1.4 6.7.1 7.5 1.5.8 1.4 1.2-.8 3.3-3 2.7-4.5 5.8-6 11.5-1.2 4.6-4.9 8.3-8.6 8.3-2 0-4.2 1.6-3.3 2.4 2.1 1.9 5 1.3 9.1-1.9 2.5-2 5-3.4 5.5-3.3.6.2 3.7-1.8 7.1-4.5l6-4.7.6-6.3c1.9-22 1.6-43.7-.7-43.7-.5 0-1.5.7-2.2 1.7-1.7 2.3-4.9 1-4.2-1.8.5-1.8-.6-2.6-7.6-5.8-4.5-2-18.6-8.4-31.3-14.1l-23.2-10.5-3.6-7.4c-2-4-3.6-7.4-3.4-7.6.7-.5 15.6-2.6 16.9-2.3.8.2 1.7.7 2 1.2.4.4 13 8.6 28 18.1 23.6 15 27.6 17.1 28.6 15.8 2-2.6 4.6-.8 3.9 2.7-.5 2.9-.4 3 3.3 3 4 0 5.5 1.2 8.1 6.3 1 2 1.1 3.2.2 5-1.7 3.4-2.1 6.7-3.2 28.2-.6 11-1.3 20.8-1.6 21.7-.3.9-4 4.5-8.2 7.8-4.2 3.4-7.7 6.8-7.7 7.5 0 .7-1.7 2.7-3.7 4.3-3.4 2.7-3.6 3-1.7 3.5 1.8.5 2 1.1 1.5 4.9-.3 2.4-1.5 15.2-2.7 28.6l-2.1 24.2 9.8 10.6c10.8 11.5 13.4 14.9 13.4 17.8 0 1-2.5 6.6-5.6 12.5-3.1 5.8-6.1 11.4-6.6 12.4-.7 1.3-1.3 1.5-2.2.8-.9-.8-2.5 1.6-6.4 9.5-2.9 5.7-5.2 10.6-5.2 10.9 0 .3 1.3.5 2.9.5 3.9 0 7.8 3.4 9 7.7.6 2 .9 3.9.7 4.2-.2.3 3.4.5 8 .3l8.4-.3v7.1H314v-3.6zm88.8-1.1c-2.6-.2-7.1-.2-10 0-2.9.2-.8.3 4.7.3s7.9-.1 5.3-.3zm19.3-2.3h11.4l1.1-3.3c.8-2.7 0-9.5-4-35.3l-4.9-32-3.8.1c-3.3 0-3.9.4-4.4 2.5-.2 1.4-2.3 14.2-4.6 28.5-4.1 25.9-5.6 44.1-3.3 41 .9-1.2 3.5-1.5 12.5-1.5zm29.2 2.3c-2.9-.2-7.7-.2-10.5 0-2.9.2-.6.3 5.2.3s8.1-.1 5.3-.3zm19.6-2.3c10.6 0 11.1-.1 11.1-2.1 0-1.2.6-3.5 1.4-5.2 7.5-16.5 11-23.7 13.6-27.8 2.2-3.7 2.6-4.9 1.5-4.9-2 0-2 0 2.6-9.1l4-8.2-2.8-3.1c-10.9-11.7-12.8-13.8-13.1-14.5-.1-.5-3.2 0-6.7 1-4 1.1-7.4 1.5-9.2 1l-2.7-.7-6.4 19.4c-4.8 14.5-6.7 19.2-7.7 18.8-1-.3-1.8.7-2.6 3.3-1 3.3-.8 5.8 1.1 15.3 1.2 6.2 2.3 13.2 2.3 15.6.2 3.4.4 3.9 1.3 2.7.9-1.2 3.5-1.5 12.3-1.5zm-85.1-3.7c.7-2.1 2-7.6 2.8-12.3l1.4-8.5-7.9-24c-7.9-23.9-8-24-10.8-23.9-1.5.1-5.7-.6-9.3-1.6l-6.5-1.7-8.3 8.7c-4.5 4.9-8.2 9.4-8.2 10 0 .7 4.3 9.4 9.6 19.3 6.3 11.7 9.2 18.3 8.6 18.9-1 1 .4 5.6 3.3 11 .8 1.4 1.5 3.8 1.5 5.2v2.6h22.5l1.3-3.7zm64.2-66.4c1.2-3.9 2-7.2 1.8-7.3-.1-.2-1.7.1-3.4.5l-3 .9 1 6.5c.5 3.6 1 6.5 1.1 6.5.1 0 1.2-3.2 2.5-7.1zm-52.6-1.1c.7-4.7.7-4.7-2.6-5.6-1.8-.5-3.4-.8-3.5-.7-.1 0 .7 3.1 1.9 6.8 2.4 7.2 3.1 7.1 4.2-.5z" fill="#6d6394"/><path d="M332 354.2c0-4.7 2.9-8.9 7-9.9l2.9-.8-11.4-21.5c-7.7-14.4-11.5-22.6-11.5-24.7 0-3.7 1.4-5.5 16.3-21l6.7-7.1-1.5-17.3c-.8-9.6-2-22.3-2.6-28.3-1-9.4-1-11.1.3-12 1.2-.9-.6-2.8-10.4-10.6-6.6-5.2-12.3-9.9-12.6-10.5-.4-.5-1-4.1-1.3-8-.4-3.8-1-8.9-1.4-11.2-.7-3.7-.5-4.3 1-4.3 1.6 0 1.7-1 1-12.2-.4-7.5-1.3-13.6-2.2-15.5-1.4-3-1.4-3.6.1-6.7 2.2-4.6 3.9-5.8 7.8-5.4 3.2.3 3.3.2 3-3-.4-3.7 2.1-5.5 4.1-2.9 1 1.3 5.2-1 30.4-16.9l29.2-18.5 8.1 1.2c4.4.6 8 1.3 8 1.5 0 .2-1.6 3.6-3.6 7.6l-3.6 7.3-31.2 14.1c-27.7 12.6-31.1 14.4-30.8 16.3.4 2.8-2.6 4-4.3 1.8-.7-1-1.7-1.7-2.2-1.7-1.6 0-2.5 12-1.8 23 .6 7.9 1.1 10 2.3 10 1.1 0 1.3.9.9 4-1.3 9.5-.4 11.2 10.9 20.5 10 8.2 12.4 9.7 12.4 7.5 0-.5.8-1 1.8-1.1.9 0-.1-.9-2.4-1.9-4.5-2-8.1-5.9-9.1-9.9-.3-1.4-2.1-4.4-3.9-6.5-3.2-3.7-3.6-6.3-.9-5.2.9.3 1.2-.3 1.1-1.7-.9-7.1-2-10.7-3.8-12.4-2.6-2.3-4.8-6.6-4.8-9.4 0-2 .4-2.1 4.4-1.5 3.4.5 5.1.2 7.9-1.4 2.2-1.3 6.1-2.3 10.4-2.7 6.5-.5 7-.4 9.9 2.3 2.4 2.2 3.5 4.6 4.8 10.4 1 4.1 2.5 9.7 3.4 12.3 1.5 4.3 1.5 5 .2 6-.9.8-1.6 3.1-1.6 6.2-.1 2.8-.5 6.2-.9 7.7-1.3 4.9.1 7.6 4.3 8.3 6.9 1.2 10.3 2.7 11.2 4.9.7 1.7.9 1.7.9.4.1-1.5 1.1-1.8 5.6-1.8h5.4l1.1-3.8c1.6-6.1 4.9-8.5 12.5-9 7.5-.5 8.3-1.9 3.6-6.5-2.8-2.7-4.8-8.7-3.6-10.7.3-.5-.4-1.4-1.5-2-2.3-1.2-2.8-6.6-.7-7.3.8-.3 1.2-3.4 1.2-11 0-14.6-.1-14.6 17-14.8l13-.1-.2 13c-.1 10.5.1 13.1 1.3 13.6 2.1.8 1.7 4.4-.6 5.8-1.5 1-2 2.4-2 5.6 0 3.6-.6 5-3.2 7.7-5 4.9-4.4 5.9 3.4 6.5 7.8.6 11.2 3 12.8 9.2 1 3.5 1.4 3.8 4.5 3.8 3.5 0 3.5 0 3.6 4.8l.1 4.7.9-4.5c1.2-5.9 3.9-7.9 10.6-8 5.2 0 5.2 0 5.9-3.5.4-2.4.1-4.7-1.1-7.1-1.5-3.1-1.5-4.2-.5-8 1.1-3.7 1-4.5-.4-5.9-.9-.9-1.4-2-1.1-2.5.3-.5 1.6-5.3 3-10.7 3-12.2 5.7-15.3 13.3-15.3 7.6.1 14 2.9 17.4 7.5l2.9 4.1-1.6 6.9c-1.4 6-1.4 7-.1 8.3 1.3 1.3 1.2 1.7-.8 3.6-2.6 2.6-4.2 5.7-5.6 11.4-1.1 4.4-5.4 8.2-9.2 8.2-1.6 0-3.4 1.7-2.7 2.4 2.1 1.9 5 1.3 9.1-1.9 2.5-2 5-3.4 5.5-3.3.6.2 3.7-1.8 7.1-4.5l6-4.7.6-6.3c1.9-22 1.6-43.7-.7-43.7-.5 0-1.5.7-2.2 1.7-1.7 2.3-4.9 1-4.2-1.8.5-1.8-.6-2.6-7.6-5.8-4.5-2-18.6-8.4-31.3-14.1l-23.2-10.5-3.6-7.4c-2-4-3.6-7.4-3.4-7.6.2-.1 3.8-.8 8.1-1.4l7.7-1.2 29.3 18.4c25.2 16 29.4 18.3 30.4 17 2-2.6 4.6-.8 3.9 2.7-.5 2.9-.4 3 3.3 3 4 0 5.5 1.2 8.1 6.3 1 2 1.1 3.2.2 5-1.7 3.4-2.1 6.7-3.2 28.2-.6 11-1.3 20.8-1.6 21.7-.3.9-4 4.5-8.2 7.8-4.2 3.4-7.7 6.8-7.7 7.5 0 .7-1.7 2.7-3.7 4.3-3.5 2.7-3.6 3-1.7 3.5 1.8.5 2 1.1 1.5 4.4-.3 2.1-1.5 15.2-2.7 29.1l-2.2 25.3 6.4 6.7c13.6 14.1 15.9 17 15.9 20.2 0 2.9-11.4 26-12.9 26-.4 0-1.3-.6-2-1.2-1-1-1.2-1-.7-.1.4.7-1.6 5.7-4.4 11.2-2.7 5.6-5 10.3-5 10.6 0 .3 1.3.5 2.9.5 3.9 0 7.8 3.3 9 7.6 1.7 6.3 1.5 6.4-15 6.4H482v-3.1c0-1.7.6-4.5 1.4-6.2 7.5-16.5 11-23.7 13.5-27.8 2-3.2 2.6-4.9 1.8-5.2-.8-.3.2-3.2 3-8.7l4.3-8.2-8.6-9.2-8.6-9.3-6.4 1.8c-4.4 1.2-7.3 1.5-9.3.9l-3-.8-6.2 19c-5.4 16.4-6.5 18.9-8.1 18.5-1-.3-1.6-.2-1.3.3.3.4 0 2.2-.7 4-1.3 3.9.5 20.8 2.8 25.2.8 1.5 1.4 4.1 1.4 5.8v3h-24v-2.6c0-1.4.5-3.4 1-4.5.8-1.4-.1-9.4-3.5-31.2-2.5-16-4.8-30.3-5-31.7-.5-2.2-1.1-2.5-4.8-2.5h-4.3l-4.7 30.5c-3.6 23.3-4.6 31.9-4.1 36.3l.7 5.7H385v-2.5c0-1.5.7-3.9 1.5-5.6.9-1.6 2-6.4 2.6-10.7l1.1-7.7-8-24-8-24-3.9-.1c-2.1-.1-6.3-.8-9.3-1.6l-5.6-1.5-8.2 8.8c-4.5 4.8-8.2 9.3-8.2 9.9 0 .7 4.3 9.4 9.6 19.3 6.3 11.7 9.2 18.3 8.6 18.9-1 1-.2 3.6 3.4 11.6.9 1.8 1.4 4.5 1.2 6l-.3 2.7-14.7.3-14.8.3v-3.9zm120.7-75.8c-.2-.2-2 .1-4.1.7-3.3.9-3.7 1.3-3.2 3.7.3 1.5.8 5 1.2 7.7l.7 5 2.8-8.4c1.6-4.7 2.7-8.6 2.6-8.7zm-55.2 8.4l.6-6.7-3.3-.9c-1.8-.5-3.4-.8-3.5-.7-.2.1.9 3.6 2.3 7.9 1.4 4.2 2.7 7.6 2.9 7.4.1-.2.6-3.3 1-7z" fill="#7e5f43"/><path d="M332 353.9c0-3.2.6-4.7 2.9-7 1.6-1.6 3.9-2.9 5.1-2.9 1.2 0 2-.3 1.8-.8-.1-.4-5.4-10.3-11.5-21.9-7.5-14-11.3-22.2-11.3-24.2 0-3.4 2.2-6.1 16.2-20.6l6.8-7.1-1.5-17.4c-.8-9.6-2-22.4-2.6-28.4-1-9.4-1-11.1.3-12 1.2-.9-.6-2.8-10.4-10.6-6.6-5.2-12.3-9.9-12.6-10.5-.4-.5-1-4.1-1.3-8-.4-3.8-1-8.9-1.4-11.2-.7-3.7-.5-4.3 1-4.3 1.6 0 1.7-1 1-12.2-.4-7.5-1.3-13.6-2.2-15.5-1.4-3-1.4-3.6.1-6.7 2.2-4.6 3.9-5.8 7.8-5.4 3.2.3 3.3.2 3-3-.4-3.7 2.1-5.5 4.1-2.9 1 1.3 5.2-1 30.4-16.9l29.2-18.5 8.1 1.2c4.4.6 8 1.3 8 1.5 0 .2-1.6 3.6-3.6 7.6l-3.6 7.3-31.2 14.1c-27.7 12.6-31.1 14.4-30.8 16.3.4 2.8-2.6 4-4.3 1.8-.7-1-1.7-1.7-2.2-1.7-1.6 0-2.5 12-1.8 23 .6 7.9 1.1 10 2.3 10 1.1 0 1.3.9.9 4-1.3 9.5-.4 11.2 10.9 20.5 10 8.2 12.4 9.7 12.4 7.5 0-.5.8-1 1.8-1.1.9 0-.1-.9-2.4-1.9-4.5-2-8.1-5.9-9.1-9.9-.3-1.4-2.1-4.4-3.9-6.5-3.2-3.7-3.6-6.3-.9-5.2.9.3 1.2-.3 1.1-1.7-.9-7.1-2-10.7-3.8-12.4-2.6-2.3-4.8-6.6-4.8-9.4 0-2 .4-2.1 4.4-1.5 3.4.5 5.1.2 7.9-1.4 2.2-1.3 6.1-2.3 10.4-2.7 6.5-.5 7-.4 9.9 2.3 2.4 2.2 3.5 4.6 4.8 10.4 1 4.1 2.5 9.7 3.4 12.3 1.5 4.3 1.5 5 .2 6-.9.8-1.6 3.1-1.6 6.2-.1 2.8-.5 6.2-.9 7.7-1.3 4.9.1 7.6 4.3 8.3 6.9 1.2 10.3 2.7 11.2 4.9.7 1.7.9 1.7.9.4.1-1.5 1.1-1.8 5.6-1.8h5.4l1.1-3.8c1.6-6.1 4.9-8.5 12.5-9 5.2-.3 6.5-.8 6.5-2.1 0-1.4 1.1-1.6 7.5-1.3 5 .2 7.4.7 7.2 1.5-.1.8 2.1 1.4 6.5 1.7 7.8.6 11.2 3 12.8 9.2 1 3.5 1.4 3.8 4.5 3.8 3.5 0 3.5 0 3.6 4.8l.1 4.7.9-4.5c1.2-5.9 3.9-7.9 10.5-8 5.2 0 5.2 0 6.2-3.9.7-3.1.6-4.2-.5-5.4-1.8-1.7-2-9.2-.4-11.1.6-.7.8-1.6.4-1.9-.3-.4 0-1.3.7-2.2.7-.9.8-1.5.2-1.5-.6 0-1.3.6-1.5 1.3-.4.9-.8.9-1.6-.3-.5-.8-.8-1.7-.5-2.1.2-.4 1.5-5.2 2.9-10.6 3-12.2 5.7-15.3 13.3-15.3 11.5.2 21.1 7.4 19.6 14.9-.5 2.3-.9 2.9-1.6 1.9-.5-.8-.6.2-.2 2.6.5 2.6.3 3.7-.4 3.2-1.5-.9-.3 3.1 1.4 4.5 1.1.9.9 1.5-.9 3.2-2.9 2.9-4.4 5.7-5.2 9.8-.8 4.2-4 8.3-5.6 7.3-.7-.4-.9-.3-.6.3.7 1.1-3.8 2.7-5.1 1.9-.4-.3-.9.4-.9 1.5-.1 1 .2 1.9.7 1.9.5 0 1.5.2 2.2.5.8.3 3.5-1 6-3s5-3.4 5.5-3.3c.6.2 3.7-1.8 7.1-4.5l6-4.7.6-6.3c1.9-22 1.6-43.7-.7-43.7-.5 0-1.5.7-2.2 1.7-1.7 2.3-4.9 1-4.2-1.8.5-1.8-.6-2.6-7.6-5.8-4.5-2-18.6-8.4-31.3-14.1l-23.2-10.5-3.6-7.4c-2-4-3.6-7.4-3.4-7.6.2-.1 3.8-.8 8.1-1.4l7.7-1.2 29.3 18.4c25.2 16 29.4 18.3 30.4 17 2-2.6 4.6-.8 3.9 2.7-.5 2.9-.4 3 3.3 3 4 0 5.5 1.2 8.1 6.3 1 2 1.1 3.2.2 5-1.7 3.4-2.1 6.7-3.2 28.2-.6 11-1.3 20.8-1.6 21.7-.3.9-4 4.5-8.2 7.8-4.2 3.4-7.7 6.8-7.7 7.5 0 .7-1.7 2.7-3.9 4.4-2.1 1.7-3.6 3.2-3.2 3.2.3.1 1 .2 1.5.3.5 0 1.2.3 1.4.6.5.4-3.3 47.4-4.7 58.5-.3 2.2-.2 3.2.2 2.2.6-1.4 1.7-.7 6.8 4.5C522.8 291 525 293.8 525 297c0 2.9-11.4 26-12.9 26-.4 0-1.3-.6-2-1.2-1-1-1.2-1-.7-.1.4.7-1.6 5.7-4.4 11.2-2.7 5.6-5 10.3-5 10.6 0 .3 1.3.5 2.9.5 3.9 0 7.8 3.3 9 7.6 1.7 6.3 1.5 6.4-15 6.4H482v-3.1c0-1.7.6-4.5 1.4-6.2 7.5-16.5 11-23.7 13.5-27.8 2-3.2 2.6-4.9 1.8-5.2-.8-.3.2-3.2 3-8.7l4.3-8.2-8.6-9.2-8.6-9.3-6.4 1.8c-4.4 1.2-7.3 1.5-9.3.9l-3-.8-6.2 19c-5 15-6.6 18.9-7.8 18.5-1.8-.4-2.3 1.7-2.4 9.8-.1 8.8 1 17.3 2.7 19.7.9 1.2 1.6 3.7 1.6 5.5v3.3h-24v-2.6c0-1.4.5-3.4 1-4.5.8-1.4-.1-9.4-3.5-31.2-2.5-16-4.8-30.3-5-31.7-.5-2.2-1.1-2.5-4.8-2.5h-4.3l-4.9 31.2c-4.3 27.7-5 31.1-6.4 30-.9-.6-.5.1.7 1.7 1.3 1.7 2.2 4.3 2.2 6.2v3.4h-24v-2.5c0-1.5.6-3.9 1.4-5.4 1.8-3.4 4.7-19.4 3.7-20.1-.4-.3-4.2-10.8-8.3-23.5l-7.5-23-3.9-.1c-2.2-.1-6.4-.8-9.5-1.6l-5.7-1.5-7.8 8.5c-4.4 4.7-8 9.1-8.2 9.8-.3 1.2 8.1 18.1 16 32.2 2.1 3.7 2.7 5.7 2 6.4-1 1-.3 3.5 3.4 11.6.9 1.8 1.4 4.5 1.2 6l-.3 2.7-14.7.3-14.8.3v-4.2zm120.7-75.5c-.2-.2-2 .1-4.1.7-3.3.9-3.7 1.3-3.2 3.7.3 1.5.8 5 1.2 7.7l.7 5 2.8-8.4c1.6-4.7 2.7-8.6 2.6-8.7zm-55.2 8.3l.7-6.7-3.1-.6c-1.7-.4-3.1-1.1-3.1-1.7 0-.6-.3-.8-.6-.4-.3.3.6 4.2 2.1 8.7 1.5 4.5 2.8 8 3 7.8.1-.2.6-3.3 1-7.1z" fill="#e65516"/><g fill="#f8691d"><path d="M332 353.9c0-3.2.6-4.7 2.9-7 1.6-1.6 3.9-2.9 5.1-2.9 1.2 0 2-.3 1.8-.8-.1-.4-5.4-10.3-11.5-21.9-7.5-14-11.3-22.2-11.3-24.2 0-3.4 2.2-6.1 16.2-20.6l6.8-7.1-1.5-17.4c-.8-9.6-2-22.4-2.6-28.4-1-9.4-1-11.1.3-12 1.2-.9-.6-2.8-10.4-10.6-6.6-5.2-12.3-9.9-12.6-10.5-.4-.5-1-4.1-1.3-8-.4-3.8-1-8.9-1.4-11.2-.7-3.7-.5-4.3 1-4.3 1.6 0 1.7-1 1-12.2-.4-7.5-1.3-13.6-2.2-15.5-1.4-3-1.4-3.6.1-6.7 2.2-4.6 3.9-5.8 7.8-5.4 3.2.3 3.3.2 3-3-.4-3.7 2.1-5.5 4.1-2.9 1 1.3 5.2-1 30.4-16.9l29.2-18.5 8.1 1.2c4.4.6 8 1.3 8 1.5 0 .2-1.6 3.6-3.6 7.6l-3.6 7.3-31.2 14.1c-27.7 12.6-31.1 14.4-30.8 16.3.4 2.8-2.6 4-4.3 1.8-.7-1-1.7-1.7-2.2-1.7-1.6 0-2.5 12-1.8 23 .6 7.9 1.1 10 2.3 10 1.1 0 1.3.9.9 4-1.3 9.5-.4 11.2 10.9 20.5 10 8.2 12.4 9.7 12.4 7.5 0-.5.8-1 1.8-1.1.9 0-.1-.9-2.4-1.9-4.5-2-8.1-5.9-9.1-9.9-.3-1.4-1-3.1-1.5-3.7-.5-.7-1.1-2.9-1.3-5-1.1-9.1-2.8-15.1-5-17.4-3-3.3-4.5-6.4-4.5-9 0-2.1.3-2.2 4.4-1.6 3.4.5 5.1.2 7.9-1.4 2.2-1.3 6.1-2.3 10.4-2.7 6.5-.5 7-.4 9.9 2.3 2.4 2.2 3.5 4.6 4.8 10.4 1 4.1 2.5 9.7 3.4 12.3 1.5 4.3 1.5 5 .2 6-.9.8-1.6 3.1-1.6 6.2-.1 2.8-.5 6.2-.9 7.7-1.3 4.9.1 7.6 4.3 8.3 10.7 1.8 11.5 2.7 12.6 13.5.4 3.6 1.1 9.7 1.6 13.5.5 3.9 1.2 11.3 1.5 16.5.3 5.2 1.1 14.9 1.7 21.5.5 6.6 1 12.7 1 13.5 0 .8 1.2 5.1 2.6 9.5l2.6 8 .9-7.3c.7-5.5 1.2-7.2 2.3-6.8.7.3 4.9 1.5 9.4 2.7 5.7 1.6 8 2.7 8 3.8 0 .9-2.1 15-4.7 31.3-4.2 26.4-4.9 29.6-6.2 28.5-1.3-1-1.4-1-.5.3.9 1.4 3.4 8.8 3.4 10.4 0 .3-5.4.6-12 .6-10 0-12-.2-12-1.5 0-.8.4-1.5.9-1.5.9 0 1.6-3 2.6-10.5.2-2.2.9-6.3 1.4-9 .5-2.8.6-5.2.2-5.5-.4-.3-4.2-10.8-8.3-23.5l-7.5-23-3.9-.1c-2.2-.1-6.4-.8-9.5-1.6l-5.7-1.5-7.8 8.5c-4.4 4.7-8 9.1-8.2 9.8-.3 1.2 8.1 18.1 16 32.2 2.1 3.7 2.7 5.7 2 6.4-1 1-.3 3.5 3.4 11.6.9 1.8 1.4 4.5 1.2 6l-.3 2.7-14.7.3-14.8.3v-4.2zm34-184.5c0-.2-1.1-.4-2.5-.4s-2.5.4-2.5.9c0 .4 1.1.6 2.5.3 1.4-.2 2.5-.6 2.5-.8zm68 187.1c0-.8.5-1.5 1-1.5.6 0 1-.9 1-2.1 0-1.1.5-3 1.1-4.1.7-1.3.7-1.8.1-1.4-.6.3-1.3-.6-1.6-2.1-1-4.7-9.5-59.7-9.3-60 .1-.1 4.4-1.3 9.4-2.6l9.2-2.5.5 2.7c.3 1.4.8 4.9 1.2 7.6l.7 5 2.7-8c1.6-4.9 2.5-9.4 2.3-11.5-.6-4.5 4.5-61.9 5.7-64.5.5-1.1 1.1-3.6 1.5-5.7.7-4.7 3.9-6.8 10.3-6.8 4.9 0 5 0 6-3.9.7-3.1.6-4.2-.5-5.4-1.8-1.7-2-9.2-.4-11.1.6-.7.8-1.6.4-1.9-.3-.4 0-1.3.7-2.2.7-.9.8-1.5.2-1.5-.6 0-1.3.6-1.5 1.3-.4.9-.8.9-1.6-.3-.5-.8-.8-1.7-.5-2.1.2-.4 1.5-5.2 2.9-10.6 3-12.2 5.7-15.3 13.3-15.3 11.5.2 21.1 7.4 19.6 14.9-.5 2.3-.9 2.9-1.6 1.9-.5-.8-.6.2-.2 2.6.5 2.6.3 3.7-.4 3.2-1.5-.9-.3 3.1 1.4 4.5 1.1.9.9 1.5-.9 3.2-2.9 2.9-4.4 5.7-5.2 9.8-.8 4.2-4 8.3-5.6 7.3-.7-.4-.9-.3-.6.3.7 1.1-3.8 2.7-5.1 1.9-.4-.3-.9.4-.9 1.5-.1 1 .2 1.9.7 1.9.5 0 1.5.2 2.2.5.8.3 3.5-1 6-3s5-3.4 5.5-3.3c.6.2 3.7-1.8 7.1-4.5l6-4.7.6-6.3c1.9-22 1.6-43.7-.7-43.7-.5 0-1.5.7-2.2 1.7-1.7 2.3-4.9 1-4.2-1.8.5-1.8-.6-2.6-7.6-5.8-4.5-2-18.6-8.4-31.3-14.1l-23.2-10.5-3.6-7.4c-2-4-3.6-7.4-3.4-7.6.2-.1 3.8-.8 8.1-1.4l7.7-1.2 29.3 18.4c25.2 16 29.4 18.3 30.4 17 2-2.6 4.6-.8 3.9 2.7-.5 2.9-.4 3 3.3 3 4 0 5.5 1.2 8.1 6.3 1 2 1.1 3.2.2 5-1.7 3.4-2.1 6.7-3.2 28.2-.6 11-1.3 20.8-1.6 21.7-.3.9-4 4.5-8.2 7.8-4.2 3.4-7.7 6.8-7.7 7.5 0 .7-1.7 2.7-3.9 4.4-2.1 1.7-3.6 3.2-3.2 3.2.3.1 1 .2 1.5.3.5 0 1.2.3 1.4.6.5.4-3.3 47.4-4.7 58.5-.3 2.2-.2 3.2.2 2.2.6-1.4 1.7-.7 6.8 4.5C522.8 291 525 293.8 525 297c0 2.9-11.4 26-12.9 26-.4 0-1.3-.6-2-1.2-1-1-1.2-1-.7-.1.4.7-1.6 5.7-4.4 11.2-2.7 5.6-5 10.3-5 10.6 0 .3 1.3.5 2.9.5 3.9 0 7.8 3.3 9 7.6 1.7 6.3 1.5 6.4-15 6.4H482v-3.1c0-1.7.6-4.5 1.4-6.2 7.5-16.5 11-23.7 13.5-27.8 2-3.2 2.6-4.9 1.8-5.2-.8-.3.2-3.2 3-8.7l4.3-8.2-8.6-9.2-8.6-9.3-6.4 1.8c-4.4 1.2-7.3 1.5-9.3.9l-3-.8-6.2 19c-5 15-6.6 18.9-7.8 18.5-1.8-.4-2.3 1.7-2.4 9.8-.1 8 1.1 17.6 2.7 22.4.9 2.4 1.6 4.7 1.6 5.2s-5.4.9-12 .9c-10 0-12-.2-12-1.5z"/><path d="M421.7 279.3c-.3-.2-.3-2.1-.1-4.3l.3-3.9-6.7-2c-3.7-1.1-7.9-2.3-9.5-2.7-1.5-.3-2.9-.9-3.1-1.3-.2-.3-.7-3.9-1.1-7.8l-.7-7.3h9.9l.7 3.9c.5 3.6.9 3.9 5 5 2.5.6 4.7 1.1 4.9 1.1.2 0 .5-2.9.6-6.5.2-6.3.1-6.5-2.4-6.6-1.4 0-6.2-.1-10.7-.2l-8.3-.2-.7-7.5c-.3-4.1-.9-10.5-1.3-14.2l-.6-6.8h12c10.9 0 12.1-.2 11.9-1.7-.1-1 0-3 0-4.6l.2-2.8 14.8.3c14 .3 14.7.4 14.5 2.3-.1 1.1-1.2 13.3-2.3 27-1.1 13.8-2.2 26.8-2.5 29-.2 2.2-.4 4.6-.4 5.3-.1.6-.9 1.2-1.8 1.2-1 .1-6.4 1.3-12 2.9-5.7 1.5-10.4 2.6-10.6 2.4zm-.2-47.3v-4h-6.2c-6.7 0-7.1.4-5.7 5.8.6 1.9 1.3 2.2 6.3 2.2h5.6v-4zm-25-32.3c1.5-7.2 6.1-10.7 14.3-10.7 4.3 0 5.2-.3 5.2-1.7 0-1.6.9-1.8 7.5-1.5 5 .2 7.4.7 7.2 1.5-.1.8 2.1 1.4 6.5 1.7 5.2.4 7.2 1 9.2 2.9 2.2 2.1 4.6 7.5 4.6 10.4 0 .4-12.4.7-27.6.7l-27.5-.1.6-3.2z"/></g><g fill="#bb8755"><path d="M332 353.9c0-3.2.6-4.7 2.9-7 1.6-1.6 3.9-2.9 5.1-2.9 1.2 0 2-.3 1.8-.8-.1-.4-5.4-10.3-11.5-21.9-7.5-14-11.3-22.2-11.3-24.2 0-3.4 2.2-6.1 16.2-20.6l6.8-7.1-1.5-17.4c-.8-9.6-2-22.4-2.6-28.4-1-9.4-1-11.1.3-12 1.2-.9-.6-2.8-10.4-10.6-6.6-5.2-12.3-9.9-12.6-10.5-.4-.5-1-4.1-1.3-8-.4-3.8-1-8.9-1.4-11.2-.7-3.7-.5-4.3 1-4.3 1.6 0 1.7-1 1-12.2-.4-7.5-1.3-13.6-2.2-15.5-1.4-3-1.4-3.6.1-6.7 2.2-4.6 3.9-5.8 7.8-5.4 3.2.3 3.3.2 3-3-.4-3.7 2.1-5.5 4.1-2.9 1 1.3 5.2-1 30.4-16.9l29.2-18.5 8.1 1.2c4.4.6 8 1.3 8 1.5 0 .2-1.6 3.6-3.6 7.6l-3.6 7.3-31.2 14.1c-27.7 12.6-31.1 14.4-30.8 16.3.4 2.8-2.6 4-4.3 1.8-.7-1-1.7-1.7-2.2-1.7-1.6 0-2.5 12-1.8 23 .6 7.9 1.1 10 2.3 10 1.1 0 1.3.9.9 4-1.3 9.5-.4 11.2 10.9 20.5 10 8.2 12.4 9.7 12.4 7.5 0-.5.8-1 1.8-1.1.9 0-.1-.9-2.4-1.9-4.9-2.2-8-5.9-9.5-11.4-.6-2.2-1.4-4.5-1.8-5.1-1.1-1.5-1.1-5.5 0-5.5.6 0 .4-.7-.4-1.5-.8-.7-1.8-3.4-2.1-5.8-.4-2.6-1.6-5.3-2.7-6.3-2.7-2.4-4.9-6.7-4.9-9.5 0-2 .4-2.1 4.4-1.5 3.4.5 5.1.2 7.9-1.4 2.2-1.3 6.1-2.3 10.4-2.7 6.5-.5 7-.4 9.9 2.3 2.4 2.2 3.5 4.6 4.8 10.4 1 4.1 2.5 9.7 3.4 12.3 1.5 4.3 1.5 5 .2 6-.9.8-1.6 3.1-1.6 6.2-.1 2.8-.5 6.2-.9 7.7-1.3 4.9.1 7.6 4.3 8.3 6.9 1.2 10.3 2.7 11.1 4.9.8 2 3.4 24.8 4.6 39.6.3 3.6 1 12.4 1.6 19.5.6 7.2 1.1 13.7 1.1 14.5 0 .8 1.2 5.1 2.6 9.5l2.6 8 .9-7.3c.7-5.5 1.2-7.2 2.3-6.8.7.3 4.9 1.5 9.4 2.7 5.7 1.6 8 2.7 8 3.8 0 .9-2.1 15-4.7 31.3-3.5 21.9-5 29.5-5.8 28.8-.9-.7-.9.1-.1 3.5.7 2.4 1.5 4.7 1.9 5.1 1.9 1.9-.2 2.4-11.3 2.4-10.2 0-12-.2-12-1.6 0-.8.4-1.3.9-1 .7.5 2.6-6.6 2.3-8.5-.1-.4.5-4.2 1.2-8.5.8-4.4 1.1-8.1.7-8.4-.4-.3-4.2-10.8-8.3-23.5l-7.5-23-3.9-.1c-2.2-.1-6.4-.8-9.5-1.6l-5.7-1.5-7.8 8.5c-4.4 4.7-8 9.1-8.2 9.8-.3 1.2 8.1 18.1 16 32.2 2.1 3.7 2.7 5.7 2 6.4-1 1-.3 3.5 3.4 11.6.9 1.8 1.4 4.5 1.2 6l-.3 2.7-14.7.3-14.8.3v-4.2zM360.4 177c.5-.5-.7-.4-2.7.2-2.8.9-4 .8-5.2-.2-2.1-1.8-2-6 .3-6.1.9 0 1.2-.3.6-.5-.6-.3-2.2.1-3.5.8-2 1.1-2.3 1.8-1.8 4.3.6 2.5.7 2.6.8.6l.1-2.4 2.1 2.8c1.8 2.2 2.7 2.6 5.3 2.1 1.7-.4 3.5-1.1 4-1.6zm4.7-6.7c1.6-.3 2.9-1 2.9-1.5 0-.6-.7-.7-1.6-.4-.9.3-2.6.6-3.8.6-2 0-2.2.4-1.7 3.3.4 2.6.6 2.8.9.9.2-1.6 1.2-2.5 3.3-2.9zM434 357c0-.5.3-1 .8-1 .4 0 1.2-2 1.8-4.4.5-2.5.7-4.3.3-4-.4.2-1-.8-1.3-2.3-1-4.7-9.5-59.7-9.3-60 .1-.1 4.4-1.3 9.4-2.6l9.2-2.5.5 2.7c.3 1.4.8 4.9 1.2 7.6l.7 5 2.7-8.1c1.5-4.5 2.6-9.2 2.4-10.5-.5-3.1 5.1-62.9 6.5-69.4 1.4-6.4 4-8.4 10.7-8.5 5.2 0 5.2 0 6.2-3.9.7-3.1.6-4.2-.5-5.4-1.8-1.7-2-9.2-.4-11.1.6-.7.8-1.6.4-1.9-.3-.4 0-1.3.7-2.2.7-.9.8-1.5.2-1.5-.6 0-1.3.6-1.5 1.3-.4.9-.8.9-1.6-.3-.5-.8-.8-1.7-.5-2.1.2-.4 1.5-5.2 2.9-10.6 3-12.2 5.7-15.3 13.3-15.3 11.5.2 21.1 7.4 19.6 14.9-.5 2.3-.9 2.9-1.6 1.9-.5-.8-.6.2-.2 2.6.5 2.6.3 3.7-.4 3.2-1.5-.9-.3 3.1 1.4 4.5 1.1.9.9 1.5-.9 3.2-2.9 2.9-4.4 5.7-5.2 9.8-.8 4.2-4 8.3-5.6 7.3-.7-.4-.9-.3-.6.3.7 1.1-3.8 2.7-5.1 1.9-.4-.3-.9.4-.9 1.5-.1 1 .2 1.9.7 1.9.5 0 1.5.2 2.2.5.8.3 3.5-1 6-3s5-3.4 5.5-3.3c.6.2 3.7-1.8 7.1-4.5l6-4.7.6-6.3c1.9-22 1.6-43.7-.7-43.7-.5 0-1.5.7-2.2 1.7-1.7 2.3-4.9 1-4.2-1.8.5-1.8-.6-2.6-7.6-5.8-4.5-2-18.6-8.4-31.3-14.1l-23.2-10.5-3.6-7.4c-2-4-3.6-7.4-3.4-7.6.2-.1 3.8-.8 8.1-1.4l7.7-1.2 29.3 18.4c25.2 16 29.4 18.3 30.4 17 2-2.6 4.6-.8 3.9 2.7-.5 2.9-.4 3 3.3 3 4 0 5.5 1.2 8.1 6.3 1 2 1.1 3.2.2 5-1.7 3.4-2.1 6.7-3.2 28.2-.6 11-1.3 20.8-1.6 21.7-.3.9-4 4.5-8.2 7.8-4.2 3.4-7.7 6.8-7.7 7.5 0 .7-1.7 2.7-3.9 4.4-2.1 1.7-3.6 3.2-3.2 3.2.3.1 1 .2 1.5.3.5 0 1.2.3 1.4.6.5.4-3.3 47.4-4.7 58.5-.3 2.2-.2 3.2.2 2.2.6-1.4 1.7-.7 6.8 4.5C522.8 291 525 293.8 525 297c0 2.9-11.4 26-12.9 26-.4 0-1.3-.6-2-1.2-1-1-1.2-1-.7-.1.4.7-1.6 5.7-4.4 11.2-2.7 5.6-5 10.3-5 10.6 0 .3 1.3.5 2.9.5 3.9 0 7.8 3.3 9 7.6 1.7 6.3 1.5 6.4-15 6.4H482v-3.1c0-1.7.6-4.5 1.4-6.2 7.5-16.5 11-23.7 13.5-27.8 2-3.2 2.6-4.9 1.8-5.2-.8-.3.2-3.2 3-8.7l4.3-8.2-8.6-9.2-8.6-9.3-6.4 1.8c-4.4 1.2-7.3 1.5-9.3.9l-3-.8-6.2 19c-5 15-6.6 18.9-7.8 18.5-1.8-.4-2.3 1.7-2.4 9.8-.2 9.3 2.1 26.5 3.4 26.5.5 0 .9.5.9 1 0 .6-4.7 1-12 1s-12-.4-12-1z"/><path d="M410.7 267.5c-4.3-1.2-8-2.5-8.1-2.6-.2-.2-.6-3.4-.8-7l-.4-6.7 4-.5c5-.7 5.6-.3 5.6 3.7 0 2.9.4 3.4 3.9 4.4 4.8 1.5 7 1.5 12.7.1l4.4-1.1V246h-30.8l-.5-3.2c-.3-1.8-.9-7.3-1.2-12.3-.4-4.9-.9-9.8-1.1-10.7-.5-1.7 1.1-1.8 23-1.8h23.5l-.5 3.8c-1 6.8.2 6.4-18.5 6l-17-.5.3 4.6.3 4.6 16.3.2c9 .1 16.6.3 16.8.5.4.4-1.4 22.7-2.1 26.3-.3 1.6-2.2 2.5-9.2 4.3-10.5 2.7-10.7 2.7-20.6-.3zm-6.7-67.4c0-3.5 2.1-7.8 4.3-8.9 4.5-2.1 5.8-2.2 6.3-.4 2.3 6.9 4.5 9.2 9.3 9.2 2.9 0 6.9-3.7 7.6-7 .5-2.5 1.2-3 3.5-3 3.6 0 6.5 3 7.8 8.1l1 3.9h-19.9c-18.7 0-19.9-.1-19.9-1.9z"/><path d="M420.9 197.8c-3-1-4.9-4.5-4.9-9.1v-3.2l7.3.3 7.4.3-.2 3.2c-.4 7.3-4 10.4-9.6 8.5zm-9.7-23c-.7-.7-1.2-2-1.2-2.9 0-.9-.9-1.9-2-2.2-1.5-.4-2-1.4-2-3.6 0-2.8.8-3.6 3.3-3.2.4 0 .7-3.3.7-7.5 0-7.4.1-7.5 2.3-6.8 9.9 3.2 15.7 3.1 19.6-.2 1.7-1.4 3.5-2.3 4.1-1.9.5.3 1 4 1 8 0 6.4.3 7.6 2 8.5 2.5 1.3 2.6 4.4.2 6.2-.9.7-2.3 2.5-2.9 4.1-1.6 3.5-6 3.9-6.5.5-.3-2.1-.8-2.3-6.3-2.3s-6 .2-6.3 2.3c-.4 2.5-3.9 3.1-6 1z"/></g><path d="M434 357c0-.5.4-1 .9-1s1.2-1.7 1.6-3.7c.4-2.1 1.4-4.7 2.3-5.8 1.7-2 1.7-2-.5-.2-2.1 1.8-2.1 1.8-2.7-1-1-4.7-9.5-59.7-9.3-60 .1-.1 4.4-1.3 9.4-2.6l9.2-2.5.5 2.7c.3 1.4.8 4.9 1.2 7.6l.7 5 2.9-8.5c1.5-4.7 2.6-9 2.4-9.7-.6-1.5 5.1-63.3 6.4-69.3.5-2.5.9-4.8 1-5.2.1-1.6 6.1-3.8 10.3-3.8 4.3 0 4.5-.1 5.5-3.9.7-3.1.6-4.2-.5-5.4-1.8-1.8-2-9.7-.2-10.7.6-.4.8-1.3.4-2s-.2-1.6.6-2.1c1.1-.6 1.1-1.1.1-2.1-.9-.9-1.2-.9-1.2.5 0 1.9-1.9 2.4-2.1.5-.2-1.6-.2-1.2 2.6-12.8 3-11.8 5.8-15 13.3-15 11.5.2 21.1 7.4 19.6 14.9-.5 2.3-.9 2.9-1.6 1.9-.5-.8-.6.2-.3 2.7.5 3.1.4 3.7-.5 2.5-.9-1.2-1-1-.5 1 .4 1.4 1.3 3.1 2 3.9 1.1 1.1 1 1.7-.8 3.5-3 2.9-4.4 5.7-5.2 10-.4 2-1.6 4.2-2.6 5-1 .7-1.6 1.5-1.3 1.8.7.8-6 2.9-7.7 2.5-.8-.2-1.1-.2-.7 0 .4.2.4 1.1.1 1.9-.3.8-.1 1.4.5 1.4s1.7.2 2.4.5c.8.3 3.5-1 6-3s5-3.4 5.5-3.3c.6.2 3.7-1.8 7.1-4.5l6-4.7.6-6.3c1.1-12.6 1.6-32.4.8-38.1-.7-6.1-2.5-8.3-3.7-4.6-.9 2.9-4 2.2-3.9-.9.1-2-1.1-2.9-8-6-4.5-2-18.5-8.4-31.2-14.1l-23.2-10.5-3.6-7.4c-2-4-3.6-7.4-3.4-7.6.2-.1 3.8-.8 8.1-1.4l7.7-1.2 29.3 18.4c26.4 16.7 29.4 18.3 30.9 17 2.3-2.1 3.8-.8 3.5 3-.2 3-.1 3.2 3.1 2.9 3.9-.4 5.6.8 7.8 5.4 1.1 2.3 1.3 3.8.6 5.1-1.5 2.8-2.1 8.3-3.2 29.3-.6 10.7-1.3 20.3-1.6 21.2-.3.9-4 4.5-8.2 7.9-4.2 3.3-7.6 6.7-7.4 7.3.1.7-1.9 2.8-4.4 4.7-4.2 3.1-4.4 3.4-2.2 3.7l2.3.3-2.2 24.7c-3 34.2-3.2 38-2.5 35.9.6-1.4 1.7-.7 6.8 4.5C522.8 291 525 293.8 525 297c0 2.9-11.4 26-12.9 26-.4 0-1.3-.6-2-1.2-1-1-1.2-1-.7-.1.4.7-1.6 5.7-4.4 11.2-2.7 5.6-5 10.3-5 10.6 0 .3 1.3.5 2.9.5 3.9 0 7.8 3.3 9 7.6 1.7 6.3 1.5 6.4-15 6.4H482v-2.6c0-3.4 7.8-21.8 13.4-31.6 2.7-4.7 3.9-7.9 3.2-8.1-.7-.3.5-3.5 3.1-8.7l4.3-8.2-8.6-9.2-8.6-9.3-6.1 1.4c-3.4.8-7.6 1.2-9.3.8l-3.2-.6-6.3 19.1c-5.4 16.5-6.5 19.1-8.1 18.7-1-.3-1.6-.1-1.3.3.3.5 0 2.4-.8 4.2-.9 2.2-1.1 4.7-.6 7.3.4 2.2 1 6.7 1.3 10 .9 9.9 1.8 14.5 2.7 14.5.5 0 .9.5.9 1 0 .6-4.7 1-12 1s-12-.4-12-1z" fill="#ffd627"/><path d="M434 357c0-.5.4-1 .9-1s1.2-1.7 1.6-3.7c.4-2.1 1.4-4.7 2.3-5.8 1.7-2 1.7-2-.5-.2-2.1 1.8-2.1 1.8-2.7-1-1-4.7-9.5-59.7-9.3-60 .1-.1 4.4-1.3 9.4-2.6l9.2-2.5.5 2.7c.3 1.4.8 4.9 1.2 7.6l.7 5 2.9-8.5c1.5-4.7 2.6-9 2.4-9.7-.6-1.5 5.1-63.3 6.4-69.3.5-2.5.9-4.8 1-5.2.1-1.6 6.1-3.8 10.3-3.8 4.3 0 4.5-.1 5.5-3.9.7-3.1.6-4.2-.5-5.4-1.8-1.8-2-9.7-.2-10.7.6-.4.8-1.3.4-2s-.2-1.6.6-2.1c1.1-.6 1.1-1.1.1-2.1-.9-.9-1.2-.9-1.2.5 0 1.9-1.9 2.4-2.1.5-.2-1.6-.2-1.2 2.6-12.8 3-11.8 5.8-15 13.3-15 11.5.2 21.1 7.4 19.6 14.9-.5 2.3-.9 2.9-1.6 1.9-.5-.8-.6.2-.3 2.7.5 3.1.4 3.7-.5 2.5-.9-1.2-1-1-.5 1 .4 1.4 1.3 3.1 2 3.9 1.1 1.1 1 1.7-.8 3.5-3 2.9-4.4 5.7-5.2 10-.4 2-1.6 4.2-2.6 5-1 .7-1.6 1.5-1.3 1.8.7.8-6 2.9-7.7 2.5-.8-.2-1.1-.2-.7 0 .4.2.4 1.1.1 1.9-.3.8-.1 1.4.5 1.4s1.7.2 2.4.5c.8.3 3.5-1 6-3s5-3.4 5.5-3.3c.6.2 3.7-1.8 7.1-4.5l6-4.7.6-6.3c1.1-12.6 1.6-32.4.8-38.1-.7-6.1-2.5-8.3-3.7-4.6-.9 2.9-4 2.2-3.9-.9.1-2-1-2.8-8-6-4.4-2-18.5-8.4-31.2-14.1l-23.2-10.5-3.6-7.4c-2-4-3.6-7.4-3.4-7.6.2-.1 3.8-.8 8.1-1.4l7.7-1.2 29.3 18.4c26.4 16.7 29.4 18.3 30.9 17 2.3-2.1 3.8-.8 3.5 3-.2 3-.1 3.2 3.1 2.9 3.9-.4 5.6.8 7.8 5.4 1.1 2.3 1.3 3.8.6 5.1-1.5 2.8-2.1 8.3-3.2 29.3-.6 10.7-1.3 20.3-1.6 21.2-.3.9-4 4.5-8.2 7.9-4.2 3.3-7.6 6.7-7.4 7.3.1.7-1.9 2.8-4.4 4.7-4.2 3.1-4.4 3.4-2.2 3.7l2.3.3-2.2 24.7c-3 34.2-3.2 38-2.5 35.9.6-1.4 1.7-.7 6.8 4.5C522.8 291 525 293.8 525 297c0 2.9-11.4 26-12.9 26-.4 0-1.3-.6-2-1.2-1-1-1.2-1-.7-.1.4.7-1.6 5.7-4.4 11.2-2.7 5.6-5 10.3-5 10.6 0 .3 1.3.5 2.9.5 3.9 0 7.8 3.3 9 7.6 1.7 6.3 1.5 6.4-15 6.4H482v-2.8c0-1.6.3-3.2.8-3.6.4-.4.8-1.2.8-1.7.1-.5.2-1.3.3-1.9 0-.5.9-1 1.9-1 1.3 0 1.4-.2.4-.9-1.1-.6-.4-2.9 3.2-10.6 2.5-5.3 5.9-11.9 7.5-14.6 2-3.2 2.6-4.9 1.8-5.2-.8-.3.2-3.2 3-8.7l4.3-8.2-8.6-9.2-8.6-9.3-6.1 1.4c-3.4.8-7.6 1.2-9.3.8l-3.2-.6-6.3 19.1c-5.4 16.5-6.5 19.1-8.1 18.7-1-.3-1.6-.1-1.3.3.3.5 0 2.4-.8 4.2-.9 2.2-1.1 4.7-.6 7.3.4 2.2 1 6.7 1.3 10 .9 9.9 1.8 14.5 2.7 14.5.5 0 .9.5.9 1 0 .6-4.7 1-12 1s-12-.4-12-1zm52.2-81.4c4.8-1.4 9.2-2.7 9.6-3 1.2-.7 1.8-5.5 3.7-29.1.8-10.4 1.8-20.5 2.1-22.2l.5-3.3H476v30c0 16.5.3 30 .8 30 .4 0 4.6-1.1 9.4-2.4z" fill="#dab71f"/><g fill="#f4c762"><path d="M482 356.5c0-1 1-1.5 2.9-1.5 2 0 3.4-.8 4.5-2.5.9-1.4 2.1-2.3 2.5-2 1.1.6 2.3-2.3 1.6-3.5-.3-.5-1.2-.7-2-.3-1.1.4-1.3.1-.9-1.1.7-1.9 0-2-2.8-.5-1.1.6-2.2.8-2.4.6-.7-.6 7.7-18.6 11.5-24.8 2-3.2 2.6-4.9 1.8-5.2-.8-.3.2-3.2 3-8.7l4.3-8.2-8.5-9.1c-4.7-5.1-8.2-9.3-7.8-9.4 11.6-3.1 12.2-3.4 12.8-6.4.7-3 .7-3 2.7-1.2 1.2 1 6.1 6.2 10.9 11.5 7.1 7.8 8.9 10.4 8.9 12.8 0 2.9-11.4 26-12.9 26-.4 0-1.3-.6-2-1.2-1-1-1.2-1-.7-.1.4.7-1.6 5.7-4.4 11.2-2.7 5.6-5 10.3-5 10.6 0 .3 1.3.5 2.9.5 3.9 0 7.8 3.3 9 7.6 1.7 6.3 1.5 6.4-15 6.4-12.6 0-14.9-.2-14.9-1.5zm13.1-11.8c-1.3-1.3-2.6-.3-1.6 1.2.3.6 1.1.8 1.7.5.6-.4.6-1-.1-1.7z"/><path d="M484.3 353.4c-1.4-.6-.7-3.1 1.5-5.7 1.2-1.3 1.7-1.5 2.4-.5.4.7.8 1.9.8 2.7 0 1.1-.4.9-1.5-.5-1.7-2.2-2.1-.3-.5 2.7 1.1 1.9.1 2.4-2.7 1.3zm-128.1-72.9c-6.8-1.8-12.6-3.6-13-3.9-.3-.3-1.1-7.2-1.8-15.3-.8-8.2-2.1-22.4-3-31.7-1.5-15-1.5-17.1-.2-18 1.2-.9-.7-2.9-10.4-10.6-6.6-5.2-12.3-9.9-12.6-10.5-.4-.5-1-4.1-1.3-8-.4-3.8-1-8.9-1.4-11.2-.7-3.7-.5-4.3 1-4.3 1.6 0 1.7-1 1-12.2-.4-7.5-1.3-13.6-2.2-15.5-1.4-3-1.4-3.6.1-6.7 2.2-4.6 3.9-5.8 7.8-5.4 3.2.3 3.3.2 3-3-.4-3.7 2.1-5.5 4.1-2.9 1 1.3 5.2-1 30.4-16.9l29.2-18.5 8.1 1.2c4.4.6 8 1.3 8 1.5 0 .2-1.6 3.6-3.6 7.6l-3.6 7.3-31.2 14.1c-27.7 12.6-31.1 14.4-30.8 16.3.4 2.8-2.6 4-4.3 1.8-.7-1-1.7-1.7-2.2-1.7-1.6 0-2.5 12-1.8 23 .6 7.9 1.1 10 2.3 10 1.1 0 1.3.9.9 4-1.3 9.5-.4 11.2 10.9 20.5 10 8.2 12.4 9.7 12.4 7.5 0-.5.8-1 1.8-1.1.9 0-.1-.8-2.3-1.8-4.9-2.2-7.3-4.8-9-9.8l-1.3-3.8 3.9-1.7c3.2-1.4 3.9-2.2 4-4.5 0-2.8.1-2.8 1.1-.5 2.4 4.8 11 3.3 11.6-2.1.3-2.2 1-2.9 3.3-3.4 1.6-.3 2.9-.9 2.9-1.4 0-1.1-12.5-.1-15.8 1.3-1.5.7-4 1.2-5.7 1.3-1.6.1-4 .5-5.2.9-2 .6-2.3.2-3.5-5.4-.8-3.9-1.9-6.5-3-7.1-2.2-1.2-4.8-6-4.8-8.9 0-2 .4-2.1 4-1.5 3 .5 5.1.2 8.3-1.3 8.9-4.3 18.8-3.7 22.1 1.3.9 1.3 2.4 6.1 3.5 10.7s2.5 9.8 3.3 11.6c1.1 2.9 1.1 3.5-.2 4.5-.9.8-1.5 3.1-1.6 6.2-.1 2.8-.5 6.2-.9 7.7-1.3 4.9.1 7.6 4.3 8.3 7.2 1.3 10.3 2.7 11.2 5.1.8 2.1 4.4 37.7 6.5 65.6l.7 8.7-4.3 1.1c-2.4.6-6.9 1.8-9.9 2.6s-6.2 1.7-7 1.9c-.8.2-7.1-1.2-13.8-3zM469 267c-1.4-.5-5.1-1.6-8.2-2.5l-5.8-1.6v-4c0-3.8.1-3.9 2.8-3.3 1.5.4 3.7 1.1 5 1.5 1.3.5 2.8.9 3.3.9s.9-6.7.9-16v-16h7v21c0 22.4.2 21.8-5 20zm-9.9-59.3c.4-2.3.8-4.5.9-4.9.1-1.6 6.1-3.8 10.3-3.8 4.3 0 4.5-.1 5.5-3.9.7-3.1.6-4.2-.5-5.4-1.8-1.8-2-9.7-.2-10.7.6-.4.8-1.3.4-2s-.2-1.6.6-2.1c1.1-.6 1.1-1.1.1-2.1-.9-.9-1.2-.9-1.2.5 0 1.9-1.9 2.4-2.1.5-.2-1.6-.2-1.2 2.6-12.8 3-11.8 5.8-15 13.3-15 11.5.2 21.1 7.4 19.6 14.9-.5 2.3-.9 2.9-1.6 1.9-.5-.8-.6.2-.3 2.7.5 3.1.4 3.7-.5 2.5-.9-1.2-1-1-.5 1 .4 1.4 1.3 3.1 2 3.9 1.1 1.1 1 1.7-.8 3.5-3 2.9-4.4 5.7-5.2 10-.4 2-1.6 4.2-2.6 5-1 .7-1.6 1.5-1.3 1.8.7.8-6 2.9-7.7 2.5-.8-.2-1.1-.2-.7 0 .4.2.4 1.1.1 1.9-.3.8-.1 1.4.5 1.4s1.7.2 2.4.5c.8.3 3.5-1 6-3s5-3.4 5.5-3.3c.6.2 3.7-1.8 7.1-4.5l6-4.7.7-6.5c.4-3.6.8-14.9.9-25.1.1-17.5 0-18.7-1.9-20.1-1.8-1.4-1.8-1.5-.1-.9 1.2.4 2.4-.2 3.8-1.9 1.2-1.6 2.9-2.5 4.7-2.5 3.2 0 6.6 3.2 5.8 5.3-.3.8 0 2 .6 2.6.8.8.8 1.4-.2 2.4s-1.1.8-.6-.8c.6-1.9.6-1.9-.8-.3-.8 1-1.8 1.4-2.2 1-.5-.4-.5-.1-.1.6.4.6 1.4 1.2 2.3 1.2 1.2 0 1.4.8.9 4.3-.3 2.3-1 13-1.6 23.7-.6 10.7-1.3 20.3-1.6 21.2-.3.9-4 4.5-8.2 7.8-4.2 3.4-7.7 6.8-7.7 7.5 0 .7-2 2.9-4.5 4.9l-4.5 3.5-22.1.1h-22.1l.8-4.3zm-40.5-11.6c-1-1.1-2-3.7-2.3-5.8l-.5-3.8 7.4-.1 7.5-.1-.5 4.1c-.2 2.3-1.1 4.9-2 5.9-2 2.3-7.4 2.2-9.6-.2z"/><path d="M511.3 133.6c.5-1.6 2.7-1.9 2.7-.3 0 .7-.7 1.4-1.5 1.4-.9 0-1.4-.5-1.2-1.1zm-18.8-10c-9.9-4.5-23.9-10.9-31.1-14.2l-13.2-5.9-3.6-7.4c-2.1-4-3.6-7.4-3.4-7.6.2-.1 3.8-.8 8.1-1.4l7.7-1.2 29.6 18.6c16.2 10.2 30.1 18.9 30.9 19.2.8.3 1.2 1 .9 1.5-.4.7-.9.6-1.4-.2-.4-.7-1.3-.2-2.5 1.7-1.6 2.4-1.6 2.6-.2 1.4 1.1-.9 1.7-1 1.7-.2 0 .6.8 1.1 1.8 1.1 1.5 0 1.5-.2.2-1.1-1-.7-1.1-.9-.2-.7 2.7.7 1.6 2.3-1.8 2.5-1.9.1-3.6.6-3.8 1.2-.2.6-.7 1.1-1 1-.4 0-8.8-3.8-18.7-8.3z"/></g><g fill="#fbd980"><path d="M482.2 356.8c.3-.7 2.5-1.4 5-1.6 4.2-.3 4.6-.6 5.2-3.3.3-1.6 1.8-4.1 3.2-5.4l2.7-2.5h-4.7c-2.6 0-5.6.5-6.7 1-1 .6-1.9.8-1.9.5 0-1.2 9.2-20 11.9-24.6 2-3.2 2.6-4.9 1.8-5.2-.8-.3.2-3.2 3-8.7l4.3-8.2-8.5-9.1c-4.7-5.1-8.2-9.3-7.8-9.4 11.6-3.1 12.2-3.4 12.8-6.4.7-3 .7-3 2.7-1.2 1.2 1 6.1 6.2 10.9 11.5 7.1 7.8 8.9 10.4 8.9 12.8 0 2.9-11.4 26-12.9 26-.4 0-1.3-.6-2-1.2-1-1-1.2-1-.7-.1.4.7-1.6 5.7-4.4 11.2-2.7 5.6-5 10.3-5 10.6 0 .3 1.3.5 2.9.5 3.9 0 7.8 3.3 9 7.6 1.7 6.3 1.5 6.4-15.1 6.4-11.5 0-14.9-.3-14.6-1.2zm-126-76.3c-6.8-1.8-12.6-3.6-13-3.9-.3-.3-1.1-7.2-1.8-15.3-.8-8.2-2.1-22.4-3-31.7-1.5-15-1.5-17.1-.2-18 1.2-.9-.7-2.9-10.4-10.6-6.6-5.2-12.3-9.9-12.6-10.5-.4-.5-1-4.1-1.3-8-.4-3.8-1-8.9-1.4-11.2-.7-3.7-.5-4.3 1-4.3 1.6 0 1.7-1 1-12.2-.4-7.5-1.3-13.6-2.2-15.5-1.4-3-1.4-3.6.1-6.7 2.2-4.6 3.9-5.8 7.8-5.4 3.2.3 3.3.2 3-3-.4-3.7 2.1-5.5 4.1-2.9 1 1.3 5.2-1 30.4-16.9l29.2-18.5 8.1 1.2c4.4.6 8 1.3 8 1.5 0 .2-1.6 3.6-3.6 7.6l-3.6 7.3-31.2 14.1c-27.7 12.6-31.1 14.4-30.8 16.3.4 2.8-2.6 4-4.3 1.8-.7-1-1.7-1.7-2.2-1.7-1.6 0-2.5 12-1.8 23 .6 7.9 1.1 10 2.3 10 1.1 0 1.3.9.9 4-1.3 9.5-.4 11.2 10.9 20.5 10 8.2 12.4 9.7 12.4 7.5 0-.5.8-1 1.8-1.1.9 0-.1-.8-2.3-1.8-4.9-2.2-7.3-4.8-9-9.8l-1.3-3.8 3.9-1.7c3.2-1.4 3.9-2.2 4-4.5 0-2.8.1-2.8 1.1-.5 2.3 4.6 10.9 3.3 11.7-1.8.4-3.1 1.7-4 5.8-4 2.7 0 3.4.5 3.9 2.7.5 1.7.2 3-.7 3.7-.8.7-1.5 3.1-1.5 6.1-.1 2.8-.5 6.2-.9 7.7-1.3 4.9.1 7.6 4.3 8.3 7.2 1.3 10.3 2.7 11.2 5.1.8 2.1 4.4 37.7 6.5 65.6l.7 8.7-4.3 1.1c-2.4.6-6.9 1.8-9.9 2.6s-6.2 1.7-7 1.9c-.8.2-7.1-1.2-13.8-3zm108.3-15c-4.4-1.3-8.3-2.4-8.7-2.5-.5 0-.8-1.8-.8-3.9 0-4.3-.5-4.2 9.3-1.6l2.7.7V226h7v21c0 11.6-.3 21-.7 20.9-.5 0-4.4-1.1-8.8-2.4zm13.5-1.4v-3.9l5.8-1.4c5.1-1.2 5.7-1.7 6-4.2l.4-2.8-6.1.7-6.1.7V226h20.6l-.4 3.8-.4 3.7-6.4-.2-6.4-.1v10.9l6-.7 6.1-.7-.7 9.9c-.4 5.5-.9 10.2-1.3 10.5-.6.5-15.2 4.9-16.5 4.9-.3 0-.6-1.8-.6-3.9zm-18.9-56.6c.5-2.2.8-4.3.9-4.7.1-1.6 6.1-3.8 10.3-3.8 4.3 0 4.5-.1 5.5-3.9.7-3.1.6-4.2-.5-5.4-1.8-1.8-2-9.7-.2-10.7.6-.4.8-1.3.4-2s-.2-1.6.6-2.1c1.1-.6 1.1-1.1.1-2.1-.9-.9-1.2-.9-1.2.5 0 1.9-1.9 2.4-2.1.5-.2-1.6-.2-1.2 2.6-12.8 3-11.8 5.8-15 13.3-15 11.5.2 21.1 7.4 19.6 14.9-.5 2.3-.9 2.9-1.6 1.9-.5-.8-.6.2-.3 2.7.5 3.1.4 3.7-.5 2.5-.9-1.2-1-1-.5 1 .4 1.4 1.3 3.1 2 3.9 1.1 1.1 1 1.7-.8 3.5-3 2.9-4.4 5.7-5.2 10-.4 2-1.6 4.2-2.6 5-1 .7-1.6 1.5-1.3 1.8.7.8-6 2.9-7.7 2.5-.8-.2-1.1-.2-.7 0 .4.2.4 1.1.1 1.9-.3.8-.1 1.4.5 1.4s1.7.2 2.4.5c.8.3 3.5-1 6-3s5-3.4 5.5-3.3c.6.2 3.7-1.8 7-4.4 5.9-4.6 6.1-4.9 6.8-10.5.3-3.2.8-15.1.9-26.6.3-18.3.5-20.9 2.1-22.7 1-1.1 3-2 4.5-2 3 0 7.4 4 5.3 4.7-.7.3-1.3 1.2-1.3 2.2 0 .9-.6 2.3-1.2 2.9-1 1-1 1.5.2 2.2.8.5 1.8.6 2.3.3.6-.4.7 1.2.4 3.8-.4 2.4-1.1 13.2-1.7 23.9-.6 10.7-1.3 20.3-1.6 21.2-.3.9-4 4.5-8.2 7.8-4.2 3.4-7.7 6.8-7.7 7.5 0 1.3-6.9 7.4-8.6 7.6-1.2.2-3.3.2-13.1 0-8.1-.2-8.2-.2-5-1.6 3.1-1.4 5.3-4.9 5.1-8.3 0-.9-.5-.3-1.1 1.3-1.6 4.5-3.8 6.5-7.2 6.5-4.2 0-5.3-.9-7-5.5-1.1-3-1.5-3.4-1.5-1.7-.1 3.3 1.5 5.9 4.7 7.6 1.5.9 2 1.6 1.2 1.6s-5.8.2-11.1.3l-9.5.2.7-4z"/><path d="M338.3 169.3c-1.3-5.3-.6-7.3 2.3-7.3 3.7 0 7.7-2.4 11.2-6.7l3.1-3.8 3.8 2c3 1.6 4.2 3.1 6.1 7.9 1.3 3.2 2.1 6 1.8 6.3-.3.3-3 .8-6.1 1-3 .2-6.8.9-8.3 1.5-1.5.7-4 1.2-5.7 1.3-1.6.1-4 .5-5.1.9-1.8.6-2.3.1-3.1-3.1zm154.2-45.7c-9.9-4.5-23.9-10.9-31.1-14.2l-13.2-5.9-3.6-7.4c-2.1-4-3.6-7.4-3.4-7.6.2-.1 3.8-.8 8.1-1.4l7.7-1.2 24.3 15.2c13.3 8.4 26.6 16.8 29.5 18.6 5.1 3.3 5.2 3.4 3.8 6.1-3.5 6.6-2.4 6.7-22.1-2.2z"/></g><g fill="#dfc6a8"><path d="M332 353.9c0-5.5 4.2-9.9 9.5-9.9 1.9 0 5.8-1.1 8.5-2.5 6-3.1 6.7-3.1 7.6-.2.3 1.2 1.5 4.1 2.6 6.5 1 2.4 1.8 5.6 1.6 7l-.3 2.7-14.7.3-14.8.3v-4.2zm53 3.1c0-.5.4-1 .9-1s1.2-1.7 1.6-3.7c.4-2.1 1.2-4.4 1.8-5.2 1-1.2.9-1.3-.2-.6-1.1.6-1.3.3-.8-1.6.8-3.4 8.4-52.1 9.3-59.2.5-4.3 1-5.7 2-5.3.7.3 4.9 1.5 9.4 2.7 5.7 1.6 8 2.7 8 3.8 0 .9-2.1 15-4.7 31.3-3.8 24.4-4.9 29.5-6 28.6-1.1-.9-1.2-.6-.3 1.6.5 1.5 1 3.8 1 5.2 0 1.3.5 2.4 1 2.4.6 0 1 .5 1 1 0 .6-4.7 1-12 1s-12-.4-12-1zm49 0c0-.5.4-1 .9-1s1.2-1.7 1.6-3.7c.4-2.1 1.4-4.7 2.3-5.8 1.7-2 1.7-2-.5-.2-2.1 1.8-2.1 1.8-2.7-1-1-4.7-9.5-59.7-9.3-60 .1-.1 4.4-1.3 9.4-2.6l9.2-2.5.5 2.7c.3 1.4.8 4.9 1.2 7.6l.7 5 2.8-8.4c1.6-4.6 3-8.6 3.2-8.8.9-.8 16.8 4.1 16.4 5.1-.2.6-3 9.1-6.2 18.9-5 15.4-6.1 17.8-7.7 17.4-1-.3-1.6-.1-1.3.3.3.5 0 2.4-.8 4.2-.9 2.2-1.1 4.7-.6 7.3.4 2.2 1 6.7 1.3 10 .9 9.9 1.8 14.5 2.7 14.5.5 0 .9.5.9 1 0 .6-4.7 1-12 1s-12-.4-12-1zm48 0c0-.5 2.2-1 4.9-1 4.7 0 4.9-.1 5.5-3.3 2-10.5 16.7-11.3 19.5-1.1 1.7 6.3 1.5 6.4-15 6.4-9.3 0-14.9-.4-14.9-1z"/><path d="M485 345.5c0-1.2 9.2-20 11.9-24.6 2-3.2 2.6-4.9 1.8-5.2-.8-.3.2-3.2 3-8.7l4.3-8.2-8.5-9.1c-4.7-5.1-8.2-9.3-7.8-9.4 11.6-3.1 12.2-3.4 12.8-6.4.7-3 .7-3 2.7-1.2 1.2 1 6.1 6.2 10.9 11.5 7.1 7.8 8.9 10.4 8.9 12.8 0 2.9-11.4 26-12.9 26-.4 0-1.3-.6-2-1.2-1-.9-1.2-.9-.7-.1.3.6-1.7 5.9-4.6 11.7l-5.3 10.6h-5.3c-2.9 0-6.2.5-7.3 1-1 .6-1.9.8-1.9.5zm-128.8-65c-6.8-1.8-12.6-3.6-13-3.9-.3-.3-1.1-7.2-1.8-15.3-.8-8.2-2.1-22.4-3-31.7-1.5-15-1.5-17.1-.2-18 1.2-.9-.7-2.9-10.4-10.6-6.6-5.2-12.3-9.9-12.6-10.5-.4-.5-1-4.1-1.3-8-.4-3.8-1-8.9-1.4-11.2-.7-3.7-.5-4.3 1-4.3 1.6 0 1.7-1 1-12.2-.4-7.5-1.3-13.6-2.2-15.5-1.4-3-1.4-3.6.1-6.7 2.2-4.6 3.9-5.8 7.8-5.4 3.2.3 3.3.2 3-3-.4-3.7 2.1-5.5 4.1-2.9 1 1.3 5.2-1 30.4-16.9l29.2-18.5 8.1 1.2c4.4.6 8 1.3 8 1.5 0 .2-1.6 3.6-3.6 7.6l-3.6 7.3-31.2 14.1c-27.7 12.6-31.1 14.4-30.8 16.3.4 2.8-2.6 4-4.3 1.8-.7-1-1.7-1.7-2.2-1.7-1.6 0-2.5 12-1.8 23 .6 7.9 1.1 10 2.3 10 1.1 0 1.3.9.9 4-1.3 9.5-.4 11.2 10.9 20.5 10 8.2 12.4 9.7 12.4 7.5 0-.5.8-1 1.8-1 .9-.1-.3-1.1-2.7-2.3-5-2.4-7.6-5.6-9-10.5-1-3.2-.9-3.3 3.3-4.4 3.9-1 4.2-1.3 3.9-4.2-.3-2.9-.3-3 .8-.8 2.5 4.8 11.1 3.3 11.7-2 .3-2.8 1.5-3.4 6.4-3.7 2.2-.1 2.9.5 3.4 2.6.5 1.7.2 3-.7 3.7-.8.7-1.5 3.1-1.5 6.1-.1 2.8-.5 6.2-.9 7.7-1.3 4.9.1 7.6 4.3 8.3 7.2 1.3 10.3 2.7 11.2 5.1.8 2.1 4.4 37.7 6.5 65.6l.7 8.7-4.3 1.1c-2.4.6-6.9 1.8-9.9 2.6s-6.2 1.7-7 1.9c-.8.2-7.1-1.2-13.8-3zm55.3-12.7c-3.8-1.1-7.5-2.4-8.2-3-.6-.5-1.3-3.8-1.5-7.3l-.3-6.3 4-.5c5.1-.5 5.5-.3 5.5 3.8 0 3.1.3 3.5 3.8 4.4 6 1.6 6.4 1.6 12 .2l5.2-1.3V246h-15.5c-8.5 0-15.5-.1-15.5-.2-.1-.2-.7-6.5-1.3-14l-1.3-13.8h46.1l-.3 4.5c-.5 5.8-1.2 6-20.4 5.1l-14.9-.8.3 4.9.3 4.8 16.9.3 16.8.2-.5 3.8c-.3 2-.9 8.1-1.3 13.4-.4 5.4-1.2 10.2-1.8 10.7-1.6 1.3-15.8 5.1-18.7 5-1.3-.1-5.5-1-9.4-2.1zm65.2-60.3c-.9-.8-1.8-2.8-2.2-4.4-.6-2.7-1.1-3-5.3-3.4l-4.7-.3 5.1-.2c5.1-.2 5.2-.2 6.2-4.1.7-3.1.6-4.2-.5-5.4-1.8-1.8-2-9.7-.2-10.7.6-.4.8-1.3.4-2s-.2-1.6.6-2.1c1.1-.6 1.1-1.1.1-2.1-.9-.9-1.2-.9-1.2.5 0 1.9-1.9 2.4-2.1.5-.2-1.6-.2-1.2 2.6-12.8 3-11.8 5.8-15 13.3-15 11.5.2 21.1 7.4 19.6 14.9-.5 2.3-.9 2.9-1.6 1.9-.5-.8-.6.2-.3 2.7.5 3.1.4 3.7-.5 2.5-.9-1.2-1-1-.5 1 .4 1.4 1.3 3.1 2 3.9 1.1 1.1 1 1.7-.8 3.5-3 2.9-4.4 5.7-5.2 10-.4 2-1.6 4.2-2.6 5-1 .7-1.6 1.5-1.3 1.8.7.8-6 2.9-7.7 2.5-.8-.2-1.1-.2-.7 0 .4.2.5 1 .2 1.8-.3.7.3 1.5 1.3 1.8 1.5.4 1.5.5.2.6-.9 0-2 1.3-2.4 2.9-.3 1.5-1.4 3.5-2.2 4.5-2 2.1-7.6 2.3-9.6.2zm-72.4-9.1c.4-2 1.6-4.7 2.8-6 2.5-2.7 7.9-3.3 7.9-.9 0 4.4 4.3 8.5 8.9 8.5 2.9 0 6.9-3.7 7.6-7 .5-2.5 1.2-3 3.5-3 3.6 0 6.5 3 7.8 8.1l1 3.9h-40.1l.6-3.6z"/><path d="M506.7 197.4c-2.2-2.4-3.5-4.3-3-4.2.6.2 3.7-1.8 7-4.4 5.9-4.6 6.1-4.9 6.8-10.6.3-3.1.8-14.8.9-25.9.3-22.5 1-25.3 6.5-25.3 3 0 7.2 3.6 5.5 4.8-.5.4-1.5 2-2.2 3.6-1.3 2.9-.5 4.5 2.1 4.6.5 0 .6 1.7.3 3.8-.3 2-1.1 12.5-1.6 23.2-.6 10.7-1.3 20.3-1.6 21.2-.5 1.6-14.9 13.8-16.3 13.8-.3-.1-2.3-2.1-4.4-4.6zm-88-1.2c-.9-1-1.9-3.6-2.2-5.7l-.7-4 7.5-.1 7.4-.1-.5 4.1c-.2 2.3-1.1 4.9-2 5.9-2 2.2-7.4 2.2-9.5-.1zm-78.4-16.5c-1.1-1.7-1-5.1.2-5.9.6-.4 2.5-.8 4.3-.8 2.7 0 3.2.4 3.2 2.4 0 1.3-.6 2.8-1.2 3.3-2.1 1.7-5.8 2.2-6.5 1zm11.9-2.9c-.6-.6-1.2-2.2-1.2-3.4 0-2.1 3-3.4 8.1-3.4 2 0 2.6 3.3 1.1 5.6-1.1 1.8-6.6 2.6-8 1.2zm59.4-2.4c-1.3-1.2-1.6-4-1.6-13.6v-12l2.8.6c1.5.4 5.5.9 8.9 1.3 5.2.5 6.7.2 9.9-1.6 2-1.2 3.9-2 4.1-1.7 1 1 .2 26-.9 27.3-1.6 1.9-3.2 1.6-4.3-.9-.9-2.1-1.7-2.3-7.5-2.3-6 0-6.5.2-6.8 2.3-.4 2.6-2.4 2.9-4.6.6z"/><path d="M339.1 171.2c-.4-.9-.6-2.3-.3-3.1.2-.7-.2-1.7-.9-2.2-1-.6-1.1-.9-.1-.9.6 0 1.2-.7 1.2-1.5 0-1.1 1.1-1.5 3.5-1.5 2.9 0 4.4-.8 7.9-4.5 2.5-2.5 5.1-4.5 6-4.5 2.7 0 6.5 4.3 8.4 9.7l2 5.2-2.7.4c-1.4.3-4.1.5-6 .6-1.9.1-4.9.9-6.7 1.7-1.8.9-3.7 1.3-4.2 1-.5-.3-2.3-.1-4.1.4-2.5.7-3.3.5-4-.8zm67.6-1.9c-1.4-1.3-.7-6.3.8-6.3 1 0 1.5 1.1 1.5 3.5 0 3.3-.8 4.3-2.3 2.8zm31.3-2.8c0-2.5.4-3.5 1.3-3.3 1.8.7 2 4.3.2 5.8-1.3 1.1-1.5.8-1.5-2.5z"/></g><g fill="#f3d9b8"><path d="M386 357.7c0-.2.8-2.9 1.9-6 1-3.1 1.4-5.4.8-5-.6.4-.8-.3-.4-1.8.8-3.4 8.4-52.1 9.3-59.2.5-4.3 1-5.7 2-5.3.7.3 4.9 1.5 9.4 2.7 5.7 1.6 8 2.7 8 3.8 0 .9-2.1 15-4.7 31.3-4.1 25.9-4.9 29.6-6.2 28.5-1.2-1-1.3-.9-.6.8.4 1.1 1 3.5 1.3 5.3.2 1.7.8 3.2 1.3 3.2s.9.5.9 1c0 .6-4.5 1-11.5 1-6.3 0-11.5-.2-11.5-.3zm16.3-12.4c-1.3-.2-3.3-.2-4.5 0-1.3.2-.3.4 2.2.4s3.5-.2 2.3-.4zm32.4 11.5c.4-.7 1.5-3.3 2.3-5.8 1.3-4 1.9-4.6 5-5.1 3.3-.6 3.3-.6.6-.8-1.6 0-3.7.6-4.7 1.5-1.6 1.4-1.8 1.3-2.3-1.3-1-4.7-9.5-59.7-9.3-60 .1-.1 4.4-1.3 9.4-2.6l9.2-2.5.5 2.7c.3 1.4.8 4.9 1.2 7.6l.7 5 2.8-8.4c1.6-4.6 3-8.6 3.2-8.8.4-.3 15.8 3.6 16.4 4.1.3.3-11.7 36.9-12.2 37.5-.2.2-1.8-.1-3.4-.7-3.7-1.3-3.6-1.5-1.6 9.3.9 4.4 1.8 10.7 2.1 14 .7 9.1 1.5 13.5 2.5 13.5.5 0 .9.5.9 1 0 .6-4.7 1-12.1 1-9.3 0-11.8-.3-11.2-1.2zm48.3.2c0-.5 2-1 4.4-1 4.2 0 4.4-.2 5-3.3 2.3-12.3 19.6-10.3 19.6 2.3v3h-14.5c-9 0-14.5-.4-14.5-1zm-126.8-76.5c-6.8-1.8-12.6-3.6-13-3.9-.3-.3-1.1-7.2-1.8-15.3-.8-8.2-2.1-22.4-3-31.7-1.5-15-1.5-17.1-.2-18 1.2-.9-.7-2.9-10.4-10.6-6.6-5.2-12.3-9.9-12.6-10.5-.4-.5-1-4.1-1.3-8-.4-3.8-1-8.9-1.4-11.2-.7-4-.6-4.3 1.4-4.3 1.2 0 1.9-.4 1.6-1-.3-.6-.6-5.7-.7-11.5 0-8.3-.4-11.3-1.9-14.2-2.3-4.4-2.3-5.2-.3-7.8 1.3-1.7 1.6-1.8 2.5-.5.8 1.2.9 1.1.5-.5-.9-3.2.7-4.7 4.5-4.3 3.3.3 3.4.2 3.1-3-.4-3.7 2.1-5.5 4.1-2.9 1 1.3 5.2-1 30.4-16.9l29.2-18.5 8.1 1.2c4.4.6 8 1.3 8 1.5 0 .2-1.6 3.6-3.6 7.6l-3.6 7.3-31.2 14.1c-27.7 12.6-31.1 14.4-30.8 16.3.4 2.8-2.6 4-4.3 1.8-2-2.8-3.2-1.9-3.9 3.1-.8 5.4-.8 4.5-.5 18 .2 9.5.3 10.2 2.2 10.2 1.7 0 1.9.5 1.4 4-1.3 9.5-.4 11.2 10.9 20.5 10 8.2 12.4 9.7 12.4 7.5 0-2.4 3-.7 6.1 3.5 1.9 2.4 3.8 4.5 4.2 4.5.4 0 2-2 3.5-4.5 2.6-4.4 2.8-4.5 6.7-3.9 7 1 10.6 2.5 11.5 4.8.4 1.3 1.3 7.4 1.9 13.7 1.8 18.3 3.9 42.7 4.7 52.1l.6 8.7-4.3 1.1c-2.4.6-6.9 1.8-9.9 2.6s-6.2 1.7-7 1.9c-.8.2-7.1-1.2-13.8-3zm55.5-12.9c-4.3-1.3-8.1-2.7-8.5-3-.3-.4-.8-3.6-1-7.1l-.4-6.5h4.6c4.6 0 4.6 0 4.6 3.5 0 3.3.2 3.5 5.1 4.9 4.7 1.4 5.7 1.4 10.5 0 4.9-1.4 5.4-1.8 5.4-4.3 0-1.6.3-4.3.6-6l.7-3.1h-32l-.6-5.2c-.3-2.9-.9-9.2-1.3-14l-.7-8.8H444v9h-35v10h17.1c15.7 0 17 .1 16.5 1.8-.2.9-.7 5.8-1.1 10.7-1.1 16-.7 15.2-8.8 17.6-10.3 3-12.4 3.1-21 .5zm50.8-2.9c-6.7-2.2-7-2.4-7.3-5.6-.3-3.3-.3-3.4 3-2.7 9.9 2.1 9.3 2.3 9.3-3.1 0-2.6.2-9.9.3-16l.2-11.3h5v20.5c0 23.5 1 21.8-10.5 18.2zm16.5-1c0-3.2.2-3.4 5.8-4.8 5.4-1.4 5.7-1.7 6-4.8l.3-3.3-3.8.6c-2.1.4-4.8 1-6 1.3-2.3.5-2.3.5-2.3-13.1V226h19v6.9l-6.7.3-6.8.3-.3 5.4-.3 5.4 6.4-.6 6.4-.6-.4 5.7c-.2 3.1-.6 7.6-.9 9.9l-.5 4.2-6.8 2.1c-8.9 2.6-9.1 2.6-9.1-1.3zm-75-62.4c0-.5.5-2.5 1-4.5 1.2-4.1 4.2-6.8 7.7-6.8 1.8 0 2.3.6 2.3 2.5 0 1.4 1.1 3.7 2.5 5 4.7 4.8 12.8 2.2 14.2-4.6 1-5 7.4-3.3 9.9 2.6 2.8 6.7 3.5 6.5-18.1 6.5-10.7 0-19.5-.3-19.5-.7zm103.4-3.1l-3.1-3.7 2.5-2c1.3-1.1 3.2-2.8 4-3.7.9-1 2-1.8 2.4-1.8 1.9 0 4.7-4.1 4.6-6.7-.2-4.7 1.2-29.6 1.8-32.9.3-1.8.1-3.5-.5-3.8-.6-.4-1.1-1.2-1.1-1.7 0-.6.5-.7 1-.4.6.4.6-.3-.1-1.8-1.5-3.2.5-10.3 3.2-11.8 2.7-1.4 6.6-.4 7.9 2.1.6 1.1.7 2 .2 2-.6 0-1.2.8-1.5 1.8-.2.9-.8 2.4-1.2 3.4-.4 1.1 0 1.8 1.4 2.3 1.7.5 2 1.2 1.5 3.3-.6 2.8-.9 7.2-1.8 28.2-.3 6.9-.9 13.9-1.2 15.5-.6 2.8-3.4 6.5-5 6.5-.4 0-1.6.9-2.8 2-3.5 3.5-7.9 7-8.5 7-.3 0-2-1.7-3.7-3.8z"/><path d="M350.9 195.8c-4.2-1.6-7.7-6.3-8.6-11.5-.3-1.8.3-2.4 3.5-3.4 3.5-1 3.8-1.4 3.4-4.3l-.3-3.1 1.3 2.5c2.6 4.9 11.8 2.9 11.8-2.5 0-1.4.4-2.5.9-2.5s1.6-.3 2.5-.6c2.1-.8 3.7 3.4 4.1 10.5.6 11.2-8.6 18.6-18.6 14.9zm138.5.3c.3-.4-1.9-1.4-5-2-5.9-1.4-10.2-4.4-10.5-7.6-.4-4.8.1-7.6 1.2-6.9.9.5 1-.1.5-2-.5-2-.3-2.6.5-2.1.8.6.9-.2.4-2.5s-.4-3 .4-2.6c.6.4 1.1.2 1.1-.4 0-.7-.9-1.4-2-1.7-2.1-.6-2.1-.3.6-11.3 2.5-10.4 9.7-13.4 21.8-9.2 6.5 2.3 11 8.1 10 13.1-.4 1.8-1 2.8-1.4 2.1-.4-.6-.6 1.1-.6 3.9.1 2.8.6 5.5 1.3 6.2.9.9.5 1.8-1.7 3.8-2.4 2.2-6 11.1-4.9 11.8.2.2-.6 1-1.9 1.8-1.2.9-2 2-1.7 2.5.3.4-1.5 1.5-4 2.4-2.5.8-4.3 1.1-4.1.7zm5.4-2.8c-1-.2-2.6-.2-3.5 0-1 .3-.2.5 1.7.5s2.7-.2 1.8-.5zm-10.1-1.8c-5.3-1.5-7.5-3-8.7-6-.6-1.4-.9-1.5-.9-.4-.2 3.3 6.9 7.7 12.4 7.7 1.1 0-.2-.6-2.8-1.3zm.5-28.2c-1.3-.3-1.9-.9-1.6-1.5.4-.7.2-.8-.4-.4-2.1 1.3-1.3 2.6 1.6 2.5 2.3-.2 2.4-.2.4-.6zm15.5-4c2.4-1.6 2.6-1.6 3.9.2.8 1 1.4 1.4 1.4.8 0-.6-.7-1.6-1.5-2.3-1.2-1-2.1-.8-4.7.9-1.8 1.1-2.9 2.1-2.5 2.1.4 0 1.9-.8 3.4-1.7z"/><path d="M341 178.4c0-.8-.4-1.3-.9-1-.5.4-.7-.3-.4-1.4.6-2.2 4.3-3.6 6.8-2.6 1.8.7 2 3.7.3 5.4-1.8 1.8-5.8 1.5-5.8-.4zm10.5-3.5c-.9-2.8.1-3.7 5.3-4.5 4-.6 4.2-.5 4.2 1.8 0 3.3-1.8 4.8-5.6 4.8-2.4 0-3.4-.5-3.9-2.1zm60.2-.6c-.4-.3-.7-6.2-.7-13.1 0-11.4.1-12.4 1.8-11.7.9.4 4.3 1.2 7.4 1.8 4.9.9 6.3.8 9.8-.8 2.2-1 4-2.2 4-2.7 0-.4.5-.8 1-.8.6 0 1 5.1 1 13.4 0 11.3-.2 13.5-1.6 14-2.5 1-3.1.7-3.7-1.4-.4-1.7-1.4-2-7.2-2-5.8 0-6.8.3-7.2 2-.5 1.9-3.3 2.7-4.6 1.3zm-72.9-5.6c-.6-5.6 0-6.7 3.8-6.7 2.8 0 4.3-.9 7.8-4.5 2.5-2.5 5.1-4.5 6-4.5 2.7 0 6.5 4.4 8.5 9.8l1.9 5.2-2.1.1c-5.1.1-10.7 1-13.4 2-1.5.7-4.9 1.3-7.4 1.5-4.6.4-4.7.3-5.1-2.9zm153.7-45.1c-9.9-4.5-23.9-10.9-31.1-14.2l-13.2-5.9-3.6-7.4c-2.1-4-3.6-7.4-3.4-7.6.2-.1 3.8-.8 8-1.4l7.8-1.2 29 18.2c15.9 10.1 29 18.8 29 19.5 0 1.1-3.9 8.6-4.3 8.3-.1 0-8.3-3.8-18.2-8.3z"/></g><path d="M386.8 356.8c.7-.7 1.2-2.5 1.2-4.1 0-1.5.5-3.8 1.1-4.9.9-1.6.8-1.9-.1-1.3-1 .6-1.1.2-.7-1.6.8-3.4 8.4-52.1 9.3-59.2.5-4.3 1-5.7 2-5.3.7.3 4.9 1.5 9.4 2.7 5.7 1.6 8 2.7 8 3.8 0 .9-2.1 15-4.7 31.3-4.6 29.2-4.7 29.6-6.7 28.2-1.4-.9-4.3-1.3-8.6-1.2l-6.5.2 6.5.3c7.5.5 8.7 1.2 9.6 6.2.4 2 1.1 4.2 1.7 4.9.7.9-1.6 1.2-10.9 1.2-9.2 0-11.5-.3-10.6-1.2zm48.5-.2c.9-.7 1.7-2.5 1.7-4 0-5 1.6-6.6 6.8-6.8l4.7-.1-4.4-.4c-3-.3-4.8.1-6.1 1.2-1.7 1.5-1.8 1.5-2.4-1.2-1-4.7-9.5-59.7-9.3-60 .1-.1 4.4-1.3 9.4-2.6l9.2-2.5.5 2.7c.3 1.4.8 4.9 1.2 7.6l.7 5 2.8-8.4c1.6-4.6 3-8.6 3.2-8.8.4-.3 15.8 3.6 16.4 4.1.3.3-11.7 36.9-12.2 37.5-.2.2-1.8-.1-3.4-.7-1.7-.6-3.1-.7-3.1-.3 0 .5.9 6.2 2 12.8 1.1 6.5 2 12.8 1.8 13.8-.3 3 1.3 10.5 2.3 10.5.5 0 .9.5.9 1 0 .6-4.7 1-12.2 1-10.5-.1-12-.3-10.5-1.4zm47.7.2c0-.4 2-.8 4.5-.8 3.6 0 4.5-.3 4.5-1.7 0-3.5 3.8-8.2 7.5-9.2 7-1.9 12.5 2.4 12.5 9.9v3.1l-14.5-.3c-8-.1-14.5-.6-14.5-1zm-126.8-76.3c-6.8-1.8-12.6-3.6-13-3.9-.3-.3-1.1-7.2-1.8-15.3-.8-8.2-2.1-22.4-3-31.7-1.5-15-1.5-17.1-.2-18 1.2-.9-.7-2.9-10.4-10.6-6.6-5.2-12.3-9.9-12.6-10.5-.4-.5-1-4.1-1.3-8-.4-3.8-1-8.9-1.4-11.2l-.8-4.3h17.6l-.6 4c-1.3 9.5-.4 11.2 10.9 20.5 10 8.2 12.4 9.7 12.4 7.5 0-2.4 3-.7 6.1 3.5 1.9 2.4 3.8 4.5 4.2 4.5.4 0 2-2 3.5-4.5 2.6-4.4 2.8-4.5 6.7-3.9 7 1 10.6 2.5 11.5 4.8.4 1.3 1.3 7.4 1.9 13.7 1.8 18.3 3.9 42.7 4.7 52.1l.6 8.7-4.3 1.1c-2.4.6-6.9 1.8-9.9 2.6s-6.2 1.7-7 1.9c-.8.2-7.1-1.2-13.8-3zm55.4-13.1c-4.3-1.3-8-2.5-8.3-2.7-.2-.2-.6-3.4-1-7.1l-.6-6.6h4.1c3.7 0 4.2.3 4.8 2.8.3 1.5.7 3.2.9 3.7.1.6 2.5 1.6 5.1 2.3 4.1 1 5.7 1 10-.3 5-1.5 5.1-1.6 5.8-6.1.3-2.6.6-5.3.6-6 0-1.1-3.2-1.4-15.9-1.4h-15.8l-.6-5.7c-.4-3.2-.9-9.5-1.3-14l-.7-8.3h45.4l-.3 4.3-.3 4.2-17.5.5c-13.1.4-17.5.8-17.4 1.8.1.6.2 2.8.3 4.7l.1 3.5h33v3.8c-.1 4.5-1.9 23.4-2.3 23.8-.6.6-17.7 5.4-19 5.3-.6-.1-4.7-1.2-9.1-2.5zm51.7-2.6c-7.2-2.1-7.3-2.1-7.3-5.5 0-1.8.1-3.3.3-3.3.1 0 2.5.6 5.4 1.4 2.8.8 5.4 1.1 5.7.8.3-.3.6-7.7.6-16.4V226h5v20.5c0 15.8-.3 20.5-1.2 20.4-.7 0-4.6-1-8.5-2.1zm15.9-1c.3-3 .7-3.3 5.8-4.8s5.5-1.8 5.8-4.9l.3-3.3-4.3.7c-2.4.3-5.1.9-6 1.1-1.7.5-1.8-.6-1.8-13V226h19.1l-.3 3.3-.3 3.2-6.8.3-6.8.3.3 5.7.3 5.7 4-.3c2.2-.2 4.8-.5 5.8-.8 1.5-.5 1.7.2 1.7 5.8 0 3.5-.3 8-.6 10-.6 3.5-.9 3.8-7.4 5.7-8.9 2.7-9.2 2.7-8.8-1.1zm-74.6-64.5c1.2-5 3.3-8.1 5.9-8.7 3.2-.8 4.5-.1 4.5 2.5 0 3.3 4.4 6.9 8.5 6.9 4.3 0 8.5-3.7 8.5-7.5 0-5.2 8-1.7 9.8 4.3.7 2.2 1.2 4.2 1.2 4.6 0 .3-8.8.6-19.5.6H404l.6-2.7z" fill="#fefef6"/><path d="M332 353.9c0-3.1.6-4.7 2.9-7 2.8-2.8 3.3-2.9 12.5-2.9 8.5 0 9.7.2 11.5 2.2 1.2 1.2 2.4 3.6 2.7 5.5 1.2 6.2 1 6.3-15.1 6.3H332v-4.1zm54.8 2.9c.6-.6 1.2-2.1 1.2-3.2 0-1.7.2-1.8 1-.6.6.9 1 1 1 .3 0-.6-.4-1.5-1-1.8-1.6-1-1.2-2.5.5-1.9 1 .4 1.5 0 1.5-1.5 0-2 .5-2.2 6.5-2 5.3.2 6.8.6 7.6 2 .6 1.3.6 1.9-.1 1.9-.5 0-1 .5-1 1 0 .6.8 1 1.7 1 1.3 0 1.4.3.6 1.1-.9.9-.7 1.6.9 2.8 1.9 1.6 1.4 1.7-9.8 1.9-9.4.2-11.6 0-10.6-1zm16-3.7c-.1-1.6-.5-2.8-.9-2.6-.6.5 0 5.5.7 5.5.3 0 .3-1.3.2-2.9zm-4.5 1.2c-1.3-.2-3.3-.2-4.5 0-1.3.2-.3.4 2.2.4s3.5-.2 2.3-.4zm35.7 3.2c0-.3 1.1-1 2.4-1.4 1.3-.5 2.6-1.8 2.9-2.9.3-1.5.1-1.9-.9-1.5-1.1.4-1.2-.1-.3-2.6 1.1-3.1 1.2-3.2 7.5-2.9 3.5.1 6.6-.1 6.9-.4.3-.3-2.4-.6-6.1-.7-4.8-.1-7.3.4-8.5 1.5-1.6 1.4-1.8 1.3-2.3-1.3-1-4.7-9.5-59.7-9.3-60 .1-.1 4.4-1.3 9.4-2.6l9.2-2.5.5 2.7c.3 1.4.8 4.9 1.2 7.6l.7 5 2.8-8.4c1.6-4.6 3-8.6 3.2-8.8.4-.3 15.8 3.6 16.4 4.1.3.3-11.7 36.9-12.2 37.5-.2.2-1.8-.1-3.4-.7-1.7-.6-3.1-.8-3.1-.4s1 6.5 2.1 13.6l2.2 12.9-2.4 2c-1.5 1.3-1.8 1.8-.7 1.4 1.7-.6 3.8 1.7 3.8 4.2 0 .6-3.5 1.2-8.2 1.4l-8.3.3 8.1.2c5.8.1 8.5.6 9.4 1.7 1.1 1.3-.2 1.5-10.9 1.5-6.6 0-12.1-.2-12.1-.5zm49-.7c0-.5 2-.8 4.5-.8 3.3 0 4.5-.4 4.5-1.5 0-.8.4-1.5 1-1.5.5 0 .7-.6.4-1.3-.2-.7.6-2.5 2-4 2-2.1 3.3-2.7 6.5-2.5 2.3.1 4.1.5 4.1 1s.4.7.9.4c1.5-1 4.3 3.2 4.8 7.4l.6 4.2-14.6-.3c-8.1-.2-14.7-.7-14.7-1.1zm17.8-6c.8-.8 1.5-.8 2.9.3 1.6 1.3 1.7 1.2.5-.2-1.3-1.7-8.2-3.1-8.2-1.7 0 .4 1 .8 2.3.8 1.8 0 1.9.2.7 1-.8.5-1 1-.4 1 .5 0 1.5-.5 2.2-1.2zm-144.6-70.3c-6.8-1.8-12.6-3.6-13-3.9-.3-.3-1.1-7.2-1.8-15.3-.8-8.2-2.1-22.4-3-31.7-1.5-15-1.5-17.1-.2-18 1.2-.9-.7-2.9-10.4-10.6-6.6-5.2-12.3-9.9-12.6-10.5-.4-.5-1-4.1-1.3-8-.4-3.8-1-8.9-1.4-11.2l-.8-4.3h17.6l-.6 4c-1.3 9.5-.4 11.2 10.9 20.5 10 8.2 12.4 9.7 12.4 7.5 0-2.4 3-.7 6.1 3.5 1.9 2.4 3.8 4.5 4.2 4.5.4 0 2-2 3.5-4.5 2.7-4.4 2.7-4.5 7.2-3.9 7.3 1 10.7 2.8 11.4 6.1.7 3.2 2.4 19.7 2.4 22.8-.1 1.1.7 9 1.5 17.5.9 8.5 1.9 19.4 2.3 24.2l.6 8.7-4.3 1.1c-2.4.6-6.9 1.8-9.9 2.6s-6.2 1.7-7 1.9c-.8.2-7.1-1.2-13.8-3zm58.3-12.4c-8.7-2.6-11.5-3.9-11.6-5.3-.1-.7-.3-3.6-.5-6.4l-.4-5.1 3.4-.1c3.9-.2 5.7 1.5 5.4 4.9-.3 2 .2 2.5 2.6 2.7 2.3.3 2.6.6 1.5 1.3-1 .8-.7.8 1 .4 1.5-.5 2.6-.2 3.2.6.6 1 1.3 1.1 3.1.2 1.3-.7 3.9-1.6 5.8-2.2 3.3-1 3.6-1.5 4.6-6.5.5-3 .8-5.8.7-6.3-.2-.4-5.6-.7-12-.5-13.8.4-20.3-.3-20.3-2.3 0-.7.4-1.5 1-1.7.5-.1.7-1.4.3-2.6-.4-1.8-.8-2-1.4-1-.8 1.2-1.2-3.4-1.3-15.7l-.1-4 22.4-.3 22.3-.2-.5 3.4c-.2 1.9-.8 3.9-1.2 4.5-.4.8-5.6 1.1-16.7 1-8.8 0-16.2.2-16.6.6-.9.9-.8 9.5.1 9.5.5 0 .5.5.2 1-.3.6-.1 1 .4 1 .6 0 1.1-.4 1.1-1s5.9-1 15.6-1h15.6l-.6 9.3c-.4 5-.9 11.3-1.2 13.8l-.5 4.6-8.2 2.2c-4.5 1.3-8.9 2.5-9.7 2.6-.8.2-4.2-.5-7.5-1.4zm2-25.1c-.3-.5-2.5-.9-4.8-.8l-4.2.1 4.5.7c2.5.4 4.6.8 4.8.8.2.1 0-.2-.3-.8zM405 200.1c0-1 .7-3.5 1.5-5.6 1.4-3.1 1.8-3.5 3.1-2.4 1.2 1 1.5 1 1.2-.2-.2-.8.5-1.4 1.5-1.4 2.2 0 5 6.7 3.6 8.4-.6.8-.5.8.3.1.7-.6 1.8-.5 3 .1 1 .5 3.6.9 5.8.7 3.6-.2 4.2-.6 5.9-4.2 1.1-2.1 1.8-4.3 1.5-4.8-.8-1.2 1.2-1 4.9.6 2.4 1 3.6 2.3 4.4 5.1.7 2.1 1 4.2.7 4.6-.2.5-8.8.8-18.9.8-17.3 0-18.5-.1-18.5-1.8zm93.5-22.1c-2.9-1.1-4.8-3.7-3.9-5.2.4-.7-.3-.3-1.5 1-1.2 1.2-2.8 2.2-3.6 2.2-3 0-6.6-2.1-7.6-4.4-.8-1.6-2.3-2.6-4.5-3.1-3.8-.7-3.7.2-.8-11.5 2.5-10.4 9.7-13.4 21.8-9.2 6.7 2.4 11.2 8.3 9.8 13.3l-.9 3.4-.8-2.7c-1.3-4.8-2.7-5.1-9.1-1.9-5.9 2.9-7.8 3.4-12.2 3.2-2-.1-2.1-.4-1.2-2.1.9-1.7.8-2-1-2-1.5 0-2.6 1.1-3.6 3.5-.7 1.9-1.4 3.7-1.4 4 0 .3 2 .5 4.4.5 2.4 0 6.6.6 9.2 1.4 2.7.8 6.8 1.8 9.1 2.3l4.2 1 1-3.6 1-3.6-.4 3.6c-.4 2.5-.1 4 .9 4.8 1.3 1.1 1.2 1.6-1.1 3.7-2.7 2.5-4.4 2.8-7.8 1.4zm5.1-3.2c-.4-2.9-6.4-4.5-7.3-2-.8 1.8 2.2 4.2 5.4 4.2 1.8 0 2.2-.5 1.9-2.2zM492 172c0-1.3-.9-2.2-2.7-2.6-1.6-.3-3.4-.7-4.1-1-.7-.2-1.5.3-1.9 1.2-.7 2 2.4 4.3 6 4.4 2 0 2.7-.5 2.7-2zm-167.2-36c-.3-3-.9-7.6-1.2-10.3-.5-3.8-.3-4.9.9-5.4.9-.3 2.1.1 2.8 1 1 1.3 5.2-1 30.4-16.9l29.2-18.5 8.1 1.2c4.4.6 8 1.3 8 1.5 0 .2-1.6 3.6-3.6 7.6l-3.6 7.3-31.2 14.1c-27.7 12.6-31.1 14.4-30.8 16.3.4 2.8-2.6 4-4.3 1.8-2-2.7-3.4-2-3.7 2.1-.3 3.3-.4 3.2-1-1.8zm167.7-12.5c-9.9-4.4-23.9-10.8-31.1-14.1l-13.2-5.9-3.6-7.4c-2.1-4-3.6-7.4-3.4-7.6.2-.1 3.8-.8 8-1.4l7.8-1.2 29 18.2c15.9 10.1 29 18.8 29 19.3 0 .6-1 2.7-2.3 4.7l-2.2 3.6-18-8.2z" fill="#eee7ee"/><g fill="#fbf5f9"><path d="M333.3 357.3c-.7-.2-1.3-1.6-1.3-3 0-1.8.4-2.4 1.5-1.9.9.3 1.5 0 1.5-.9s-.6-1.2-1.6-.8c-1.4.5-1.5.3-.5-1.5 2.2-4.2 5-5.2 14.6-5.2 8.3 0 9.4.2 11.4 2.4 2.7 2.9 4 9.4 2 10.7-1.5.9-25.5 1.1-27.6.2zm25-1c-1.3-.2-3.3-.2-4.5 0-1.3.2-.3.4 2.2.4s3.5-.2 2.3-.4zm28.5.5c.7-.7 1.2-2.1 1.2-3.2 0-1.7.2-1.8 1-.6.5.8 1 1 1 .5 0-.6-.5-1.6-1.2-2.3-.9-.9-.8-1.2.5-1.2 1 0 1.7-.8 1.7-2 0-1.9.6-2.1 6.5-1.9 5.3.2 6.8.6 7.6 2 .6 1.3.6 1.9-.1 1.9-.5 0-1 .5-1 1 0 .6.7 1 1.6 1 1.4 0 1.4.3.4 1.5-.9 1-.9 1.5-.1 1.5.6 0 1.1.7 1.1 1.5s-.7 1.5-1.5 1.5c-1.4 0-3.3-5.2-2.7-7.3.1-.5-.2-.6-.7-.3-.6.4-.6 1.8 0 3.9.5 1.7.9 3.2.9 3.2s-2.3.1-5.1.3c-4 .2-5.4-.1-6.5-1.5-1.3-1.6-1.4-1.7-.8 0 .5 1.3 0 1.7-2.2 1.7s-2.5-.3-1.6-1.2zm11.5-2.5c-1.3-.2-3.3-.2-4.5 0-1.3.2-.3.4 2.2.4s3.5-.2 2.3-.4zm39.7 1.8c-1.2-2.4-1.3-4.2-.1-2.2.7 1 3.1 1.3 9.5 1.2 7.2-.2 8.6 0 8.6 1.3s-1.5 1.6-8.5 1.6c-7.3 0-8.6-.3-9.5-1.9zm53.8-.8c.2-1.3.8-2.3 1.3-2.3s.6-.6.3-1.3c-.2-.7.6-2.5 2-4 2-2.1 3.3-2.7 6.5-2.5 2.3.1 4.1.5 4.1 1s.4.7.9.4c1.5-1 4.3 3.2 4.8 7.4l.6 4.1-10.5-.2c-10.4-.2-10.5-.3-10-2.6zm9-4.5c.8-.8 1.5-.8 2.9.3 1.6 1.3 1.7 1.2.5-.2-1.3-1.7-8.2-3.1-8.2-1.7 0 .4 1 .8 2.3.8 1.8 0 1.9.2.7 1-.8.5-1 1-.4 1 .5 0 1.5-.5 2.2-1.2z"/><path d="M439.3 352.8c.3-1.1 0-1.5-.9-1.1-1.1.4-1.2-.1-.3-2.6 1.1-3.1 1.1-3.1 8-2.9 6.2.1 8.3.9 6.2 2.1-.5.2-.2.2.4.1 1.2-.3 3.3 2.5 3.3 4.5 0 .5-3.8 1.1-8.6 1.3-7.6.3-8.5.1-8.1-1.4zm-83.1-72.3c-6.8-1.8-12.6-3.6-13-3.9-.3-.3-1.1-7.2-1.8-15.3-.8-8.2-2.1-22.4-3-31.7-1.5-15-1.5-17.1-.2-18 1.2-.9-.7-2.9-10.4-10.6-6.6-5.2-12.3-9.9-12.6-10.5-.4-.5-1-4.1-1.3-8-.4-3.8-1-8.9-1.4-11.2l-.8-4.3h17.6l-.6 4c-1.3 9.5-.4 11.2 10.9 20.5 10 8.2 12.4 9.7 12.4 7.5 0-2.4 3-.7 6.1 3.5 1.9 2.4 3.8 4.5 4.2 4.5.4 0 2-2 3.5-4.5 2.6-4.4 2.8-4.5 6.7-3.9 6.9 1 10.6 2.5 11.5 4.8.9 2.3 2.1 12.2 2.5 20.8.2 2.9 1 12.3 1.8 20.8.9 8.5 1.9 19.4 2.3 24.2l.6 8.7-4.3 1.1c-2.4.6-6.9 1.8-9.9 2.6s-6.2 1.7-7 1.9c-.8.2-7.1-1.2-13.8-3zm58.3-12.4c-8.7-2.6-11.5-3.9-11.6-5.3-.1-.7-.3-3.6-.5-6.4l-.4-5.1 3.4-.1c3.9-.2 5.7 1.5 5.4 4.9-.3 2 .2 2.5 2.6 2.7 2.3.3 2.6.6 1.5 1.3-1 .8-.7.8 1 .4 1.5-.5 2.6-.2 3.2.6.6 1 1.3 1.1 3.1.1 1.3-.6 3.8-1.5 5.7-2 3.2-.7 3.5-1.2 4.6-6.4.6-3 1-5.9.8-6.4-.2-.5-5.6-.8-12-.6-14.1.4-20.3-.3-20.3-2.4 0-.8.5-1.4 1-1.4.6 0 1-.5 1-1.1 0-.5-.4-.8-.9-.5-.5.4-.7-.4-.3-1.6.3-1.4.2-1.9-.6-1.4-1.2.7-1.5-2.3-1.6-14.9l-.1-4 22.4-.3 22.3-.2-.5 3.4c-.2 1.9-.8 3.9-1.2 4.5-.4.8-5.3 1.2-15.3 1.1-8.1-.1-15.6-.1-16.8 0-1.9 0-2.1.6-2 5 .1 2.7.5 5 .9 5 .5 0 .5.5.2 1-.3.6-.1 1 .4 1 .6 0 1.1-.4 1.1-1s5.9-1 15.6-1h15.6l-.6 9.3c-.4 5-.9 11.3-1.2 13.8l-.5 4.6-8.2 2.2c-4.5 1.3-8.9 2.5-9.7 2.6-.8.2-4.2-.5-7.5-1.4zm2-25.1c-.3-.5-2.5-.9-4.8-.8l-4.2.1 4.5.7c2.5.4 4.6.8 4.8.8.2.1 0-.2-.3-.8zm53.1 23.1c-.4-.6-1.3-.8-2-.5-.7.3-2-.1-2.7-.8-.8-.7-2.2-1.3-3.1-1.4-1 0-2.8-.2-4-.3-2.3-.2-2.3-.2.2-1.7 2.1-1.2 2.2-1.4.4-.9-1.8.5-2.1.1-2.1-2 0-1.7.4-2.4 1.3-2.1.7.3 2.9.8 4.9 1.2 2.7.5 3.3.9 2.3 1.6-1 .7-.8.8.7.6 1.9-.3 2-1.2 2.3-14.5l.3-14.3 2.5.2 2.5.2-.3 17.5c-.2 12.1-.7 17.6-1.5 17.8-.6.2-1.4 0-1.7-.6zm10.1.2c-.4-.3-.7-1.5-.7-2.5 0-2.2 8.1-6.3 10.9-5.5 1.3.3 1.6-.3 1.2-3.6l-.3-3.9-4.3.5c-2.4.4-4.9.8-5.7.9-1 .2-1.3-2.3-1.3-12.7v-13l9.3-.3 9.3-.3-.3 3.3-.3 3.3-6.5.1c-4.5.1-6.5.5-6.9 1.5-.2.8-.9 1.7-1.5 2.1-.8.5-.7.8.2.8 1.5 0 1.6 5.6 0 6.6-1.8 1.1 2.4 2.3 4.4 1.3.9-.5 3.3-.9 5.4-.9h3.7l-.7 8.3c-.4 4.5-.8 8.8-.8 9.5-.1.7-.7 1.1-1.4.8-.8-.3-1.6-.1-2 .5-.3.6-1.3.8-2.1.5-.8-.3-1.1-.1-.8.4.6 1-2 1.5-5.8 1.2-1-.1-1.5.3-1.2.8.7 1.1-.8 1.4-1.8.3zm-11.5-38c.2-.9 1.3-1.8 2.6-1.9 1.6-.3 2.2.1 2.2 1.6s-.7 2-2.6 2c-1.8 0-2.5-.5-2.2-1.7zM405 199.5c0-1.4.5-2.5 1.2-2.5.6 0 .8-.3.5-.6-1.1-1.1 1.4-4.6 2.9-4 .8.3 1.3 0 1.1-.7-.1-.7.6-1.2 1.6-1.2 2.4 0 5 6.7 3.3 8.6-.9 1.1-.8 1.1.6.1 1.1-.9 1.8-1 2.3-.2.4.6 2.9 1 5.6.9 4.6-.2 5-.5 6.8-4.2 1.1-2.2 1.8-4.4 1.5-4.9-.7-1.1.7-1 4.4.3 2.2.7 3.5 2.2 4.6 5 .9 2.2 1.4 4.4 1.1 4.9-.3.5-8.9.9-19 .9H405v-2.4z"/></g><g fill="#fcfaf9"><path d="M334 357c0-.5.5-1 1.1-1 .5 0 .9-.8.7-1.7-.1-1 .1-2.4.6-3.2.7-1.1.3-1.3-2-.8-1.6.3-2.3.4-1.6.1.6-.3 1-.9.7-1.4-.3-.5.7-1.8 2.1-2.9 2.3-1.8 4.1-2.1 11.9-2.1 8.3 0 9.4.2 11.4 2.4 2.7 2.9 4 9.4 2 10.7-2.2 1.4-15.6 1.1-16.2-.3-.4-1-.6-1-.6 0-.1 1.5-10.1 1.7-10.1.2zm24.3-.7c-1.3-.2-3.3-.2-4.5 0-1.3.2-.3.4 2.2.4s3.5-.2 2.3-.4zm-14.2-5.3c-1.4-.8 2.1-3.7 3.9-3.2 1.3.3 1.3.2.1-.6-1.4-1-5.1.5-5.1 2 0 .5-.9.8-1.9.8-1.1 0-2.3.4-2.6 1-.3.5.9.9 3 .8 2-.1 3.1-.4 2.6-.8zm-2.1-4.1c0-.5.5-.7 1.2-.3.6.4.8.3.5-.3-.4-.6-1.8-1-3.1-1-2 0-2.2.2-1.3 1.3 1.5 1.6 2.7 1.8 2.7.3zm45 10.2c0-.6.5-1.3 1-1.6.6-.4.7-1.1.4-1.7-.5-.7-.2-.8.6-.3.9.5 1 .2.5-1.4-.7-2.2-.3-2.4 4.5-2.3l2.5.1-2.4-.7c-4.3-1.3-3.3-2.7 1.9-2.7 5.2 0 6.2.7 3.3 2.4-1.6.9-1.5 1 .5.8 1.2-.1 2.2-.5 2.2-1 0-.4.6-.5 1.3-.1.7.5.6 0-.3-1.1-1.3-1.6-1.3-1.8 0-1.3 2.7.9 2.3 3.5-.7 4.3-1.5.4-2.2 1-1.5 1.2 2.9 1.1.8 2.2-4.5 2.5-4.9.3-5.8.6-5.5 2.1.2 1.1-.4 1.7-1.8 1.7-1.1 0-2-.4-2-.9z"/><path d="M392 357.1c0-.7 2.3-1.1 5.5-1.1 3 0 5.5.3 5.5.8 0 .4-2.5.8-5.5 1-3.4.2-5.5-.1-5.5-.7zm11.7-1.3c-.4-1.3-.1-2.6.6-3 2-1.3 3-.9 1.7.7-.9 1-.9 1.5-.1 1.5.6 0 1.1.7 1.1 1.5 0 2.3-2.7 1.8-3.3-.7zm34.3.3c-1.3-2.5-1.3-4.2.1-1.8.8 1.4 2.5 1.7 9.4 1.7 5 0 8.5.4 8.5 1s-3.5 1-8.5 1c-7.3 0-8.6-.3-9.5-1.9zm53.8-.8c.2-1.3.9-2.3 1.4-2.3.5 0 .7-.3.4-.8-.2-.4.2-1.8 1.1-3.2.8-1.4 1.2-1.7.9-.7-.3 1 0 1.7.8 1.7s1.6.6 1.9 1.3c.3.9.8.8 2.2-.3 1.4-1.1 1.9-1.2 2.2-.2.3.6.9 1.2 1.5 1.2s.4-.8-.5-1.8c-1-1-1.7-2.4-1.7-3 0-.7-.5-1.2-1.1-1.2-.5 0-.8.4-.5.9.3.5-.1 1.2-1 1.5-2.2.8-2.4.8-2.4-.9 0-2.1 4.6-3 6.7-1.4 1.4 1.2 1.6 1.2.8-.1s-.7-1.3 1 0c1 .8 2 1.4 2.3 1.2 1-.7 4.2 5.4 4.2 8.1v2.8l-10.3-.2c-10.3-.2-10.4-.3-9.9-2.6zM332 353.5c0-1.6 1.6-2 2.4-.6.3.5-.1 1.1-.9 1.5-.9.3-1.5 0-1.5-.9z"/><path d="M439.3 352.6c.3-.7 0-1.9-.6-2.6-.9-1-.9-1.1 0-.6.7.4.9-.1.6-1.4-.5-1.9-.1-2 6.6-1.8 3.9.1 7.1.5 7.1 1 0 .4-.5.8-1.2.8-.6 0-.8.3-.4.7.3.4-.4 1.3-1.6 2-1.8.9-1.9 1.2-.6 1.3.9 0 2-.5 2.3-1 .4-.6 1.1-.7 1.7-.4.7.4.8.2.4-.4-.4-.7-.2-1.2.3-1.2.6 0 1.1.4 1.1.9s.3 1.6.6 2.5c.5 1.4-.6 1.6-8.1 1.6-7 0-8.6-.3-8.2-1.4zm-50.7-5.4c-.2-.4 1.3-11.5 3.4-24.6 2.1-13.1 4.4-28.1 5.1-33.3.9-7.1 1.5-9.3 2.5-8.9.7.3 4.9 1.5 9.4 2.7 5.7 1.6 8 2.7 8 3.8 0 .9-2.1 15-4.7 31.3-4.6 29.2-4.7 29.6-6.7 28.2-3.3-2.3-17.5-1.7-16 .7.3.5.3.9 0 .9s-.7-.4-1-.8zm-32.4-66.7c-6.8-1.8-12.6-3.6-13-3.9-.3-.3-1.1-7.2-1.8-15.3-.8-8.2-2.1-22.4-3-31.7-1.5-15-1.5-17.1-.2-18 1.2-.9-.7-2.9-10.4-10.6-6.6-5.2-12.3-9.9-12.6-10.5-.4-.5-1-4.1-1.3-8-.4-3.8-1-8.9-1.4-11.2l-.8-4.3h17.6l-.6 4c-1.3 9.5-.4 11.2 10.9 20.5 10 8.2 12.4 9.7 12.4 7.5 0-2.4 3-.7 6.1 3.5 1.9 2.4 3.8 4.5 4.2 4.5.4 0 2-2 3.5-4.5 2.7-4.4 2.7-4.5 7.2-3.9 7.3 1 10.7 2.8 11.4 6.1 1 4.9 2.5 19.7 2 20.5-.3.4 0 3.4.5 6.5 1.3 7.5 4.5 45.3 3.8 45.9-.3.4-9 2.8-20.7 5.8-.8.3-7.1-1.1-13.8-2.9zm27.1-24.2c-1.3-.2-2.3-.9-2.3-1.4 0-.5-.5-.9-1.1-.9-.8 0-.8.5.1 1.5.7.8 2.2 1.4 3.4 1.4 2-.2 2-.2-.1-.6zm31.2 11.8c-8.7-2.6-11.5-3.9-11.6-5.3-.1-.7-.3-3.6-.5-6.4l-.4-5.1 3.2-.1c5.4-.1 7.5 3 4.2 6.3-1.3 1.3-1.4 1.6-.3 1.5 3.1-.5 6 .1 5.4.9-.3.5-.1 1.2.5 1.6.5.3 1 .1 1-.4 0-1.5 2.7-1.4 3.3.2.3.9 1 .9 3.1-.3 2.2-1.1 3.1-1.2 4.7-.2 1.4.9 2.4 1 3.7.2 1.4-.9 1.4-1-.5-.5-1.3.4-2.3.2-2.3-.4 0-.5.8-1.1 1.7-1.3 1.2-.2 2.1-2 2.8-5.8.6-3.1 1-6 .8-6.5-.2-.6-5.1-.9-12-.7-14.2.4-20.3-.3-20.3-2.4 0-.8.6-1.4 1.3-1.3.6.1 2.1.1 3.2 0 1.6-.1 1.7-.3.5-1.1-.9-.6-1.7-.5-2.2.3-.6.9-.8.9-.8-.1 0-.7-.4-1-1-.7-.6.4-.7-.1-.3-1 .3-1 .1-2-.5-2.4-.7-.4-1.3-4.4-1.4-9.6l-.3-9 22.3-.3 22.4-.2-.5 3.4c-.2 1.9-.8 3.9-1.2 4.5-.4.8-5.3 1.2-15.3 1.1-8.1-.1-15.6-.1-16.8 0-1.9 0-2.1.6-2 5 .1 2.7.5 5 .9 5 .5 0 .5.5.2 1-.3.6-.1 1 .4 1 .6 0 1.1-.4 1.1-1s5.9-1 15.6-1h15.6l-.6 8.8c-1.5 19.4-1.3 18.9-5.6 20-3 .7-3.7.7-3.4-.3.3-.7.1-1.6-.4-1.9-.5-.3-.9.2-.8 1.1.2 2.3-4.3 4.4-7.8 3.7-1.9-.4-2.6-.3-2.2.5.9 1.4.4 1.3-6.9-.8zm-4.9-12.3c.4-.7.3-.8-.5-.4-.7.4-1.5-.2-2-1.6-1-2.3-1-2.3-1-.1-.1 1.2.5 2.4 1.2 2.6.6.3 1.3.6 1.4.6.1.1.5-.4.9-1.1zm6.9-12.8c-.3-.5-2.5-.9-4.8-.8l-4.2.1 4.5.7c2.5.4 4.6.8 4.8.8.2.1 0-.2-.3-.8zm53.1 23.1c-.4-.6-1.3-.8-2-.5-.7.3-2-.2-2.9-1-.8-.8-1.7-1.3-2-1-.2.3-1.7.2-3.2-.2-2.7-.7-2.7-.8-.9-2.2 1.8-1.4 1.8-1.4-.2-.8-1.8.6-2.1.2-2.1-1.9 0-1.9.4-2.5 1.4-2.1.8.3 2.1.6 2.8.6.8 0 2.1.7 3 1.6.8.9 2.2 1.3 3 1 1.2-.4 1.5-3.1 1.5-14.6v-14l2.5.2 2.6.2-.3 17.5c-.2 12.1-.7 17.6-1.5 17.8-.6.2-1.4 0-1.7-.6zm.7-1.9c-1-1.1-2.2-1.7-2.6-1.4-.5.2 0 1 1 1.8 2.6 2 3.6 1.7 1.6-.4zm.2-4.4c-1-1.3-1.4-1.6-1.1-.8.3.8.9 2.4 1.3 3.5s.8 1.4 1.1.7c.2-.6-.4-2.2-1.3-3.4zm9.2 6.5c-1.9-1.9-.5-4.5 3.5-6.3 4.1-1.8 6.4-1.8 5.3 0-.3.5-.1 1.1.4 1.5.6.3.8-.4.6-1.6-.3-1.3 0-1.9.8-1.6 1.3.5 1.5-5.8.3-7.1-.4-.3-2.9-.1-5.7.4-2.7.6-5.2.8-5.4.4-.2-.3-.3-6.2-.2-13.1l.2-12.4 9.3-.2 9.3-.1-.3 3.1c-.3 3.2-.3 3.2-6.4 3.3-6.4.1-8.8.9-7.9 2.5.4.5 0 .9-.7.9-1.1 0-1 .2 0 .9 2.1 1.3 1.1 6.6-1.2 6.4-1.1 0-1.4.3-.9.8 1 1 3.9 1.1 10.7.3l4.9-.6-.6 8.1c-.4 4.5-1.1 8.9-1.6 9.9-.6.9-1.1 1.3-1.1.8s-.7-.3-1.5.4c-.8.6-2 .8-2.6.4-.8-.4-.9-.3-.5.4.7 1.2-1.6 1.7-5.7 1.4-1-.1-1.5.3-1.2.8.7 1.1-.8 1.4-1.8.3zM468 228.5c0-.8.4-1.5.9-1.5s1.6-.3 2.5-.6c1.2-.4 1.6 0 1.6 1.5 0 1.6-.6 2.1-2.5 2.1-1.6 0-2.5-.6-2.5-1.5zm-62.7-29.3c-.2-2.6-.1-2.6.7-.4.5 1.2 1.2 2.2 1.5 2.2.7 0 .1-3.8-.8-4.6-1.1-1.2 1.4-4.6 2.9-4 .8.3 1.3.2 1-.3-.5-.7 1.5-2.1 2.9-2.1.4 0 2.5 6.9 2.5 8.3 0 .5-.4.5-1 .2-.5-.3-1-.1-1 .4 0 .6.9 1.1 2.1 1.1 1.3 0 1.8-.4 1.3-1.2-.6-1-.5-1 .8 0 .9.7 3.9 1.1 7.7 1 3.5-.1 5.8-.4 5.2-.6-.6-.2-1.1-.8-1.1-1.3 0-.6.4-.8.8-.5.4.2.8-.3.9-1.2.4-4.8.8-6.2 2.1-6.2.7 0 1 .5.6 1.1-.4.7 0 .9 1.4.5 2.4-.8 5.6 2 4.8 4.1-.3.8-.2 1.2.3.9.5-.3 1.1.3 1.4 1.4.3 1.1.1 2-.5 2-.5 0-.7.4-.3 1 .3.5-6.4.9-17.8.9h-18.3l-.1-2.7zm7.9-3.3c.5-.3.3-.9-.6-1.2-1.2-.5-1.6 0-1.5 2.1 0 1.6.3 2.1.6 1.2.3-.8 1-1.8 1.5-2.1z"/></g><g fill="#f7f9f6"><path d="M345 357c0-.9 3.9-2.5 4.5-1.8.2.2-.7.8-2.1 1.5-1.3.6-2.4.7-2.4.3z"/><path d="M348.3 357.3c.4-.3 3.3-.6 6.4-.6 3.2 0 4.2-.2 2.3-.4-5.5-.6-7.8-2.1-7.2-4.8.2-1.5-.4-3.1-1.7-4.4-2.3-2.3-4.2-2.8-3.7-.8.1.6.1.9-.1.4-.3-.4-1-.4-1.5-.1-.7.5-.8.2-.3-.6.6-.9.4-1.2-.7-.8-.8.4-2.1.2-2.9-.3-.9-.5 2.2-.9 8.2-.9 8.8 0 9.7.2 11.8 2.4 2.7 2.9 4 9.4 2 10.7-1.6 1-13.6 1.2-12.6.2zm38.7-.5c0-.4.9-.8 2-.8s2 .4 2 .8-.9.8-2 .8-2-.4-2-.8zm17-1.3c0-1.4.4-2.5.9-2.5s.7 1 .3 2.2c-.3 1.4-.2 1.9.6 1.4.7-.4 1.2-.2 1.2.3 0 .6-.7 1.1-1.5 1.1-.9 0-1.5-.9-1.5-2.5zm35.5 1.5c-.4-.6 2.5-1 7.9-1 5.1 0 8.6.4 8.6 1s-3.3 1-7.9 1c-4.4 0-8.3-.4-8.6-1zm-101.2-3.7c1.5-.2 3.9-.2 5.5 0 1.5.2.2.4-2.8.4s-4.3-.2-2.7-.4zm52.7 0c0-.9 9.8-.8 10.7.1.4.3-1.9.6-5 .6s-5.7-.3-5.7-.7zm52.8 0c2.3-.2 6.1-.2 8.5 0 2.3.2.4.4-4.3.4s-6.6-.2-4.2-.4zm56 0c2.3-.2 6.1-.2 8.5 0 2.3.2.4.4-4.3.4s-6.6-.2-4.2-.4zm4.6-2.8c-1.5-1.1-1.6-1.5-.4-1.5 1.2-.1 1.2-.3-.2-1.4-1-.7-1.8-1.7-1.8-2.1 0-.5.8-.1 1.8.8 1 1 2.3 1.4 2.7 1 .5-.5.4-.1-.3.9-1.1 1.4-1 1.7.5 2 1.1.2 1.4.6.7 1-.6.4-2 .1-3-.7zm-171.6-.2c.6-.2 1-.8.7-1.3-.2-.4.4-1.5 1.5-2.5s2-1.5 2-1c0 .4-.8 1.4-1.7 2.1-1.5 1.1-1.5 1.3-.3 1.4 1.3 0 1.3.1 0 1-.8.5-1.9.9-2.5.9-.5 0-.4-.3.3-.6zm58.4-.5c.5-1.5 8.7-1.8 9.1-.3.1.6-2 1.1-4.7 1.3-3.6.2-4.7 0-4.4-1zm14.4-3.4c-2.1-1.5-15.1-2.1-14.2-.6.2.4-.4.8-1.5.8-1.5 0-1.9-.5-1.5-2.1.7-3.1 8.4-52.2 9.2-58.8.5-4.3 1-5.7 2-5.3.7.3 4.9 1.5 9.4 2.7 6.1 1.7 8 2.6 8 4s-8.4 55.7-9.2 59.6c-.2.8-.8.8-2.2-.3zm-49.4-65.9c-6.8-1.8-12.6-3.6-13-3.9-.3-.3-1.1-7.2-1.8-15.3-.8-8.2-2.1-22.4-3-31.7-1.5-15-1.5-17.1-.2-18 1.2-.9-.7-2.9-10.4-10.6-6.6-5.2-12.3-9.9-12.6-10.5-.4-.5-1-4.1-1.3-8-.4-3.8-1-8.9-1.4-11.2l-.8-4.3h17.6l-.6 4c-1.3 9.5-.4 11.2 10.9 20.5 10 8.2 12.4 9.7 12.4 7.5 0-2.4 3-.7 6.1 3.5 1.9 2.4 3.8 4.5 4.2 4.5.4 0 2-2 3.5-4.5 2.7-4.4 2.7-4.5 7.2-3.9 7.3 1 10.7 2.8 11.4 6.1 1.4 6.8 2.4 19.9 1.5 20.9-.5.6-.6 1.4-.2 1.7.3.4-3.6.7-8.8.6-5.2 0-8.6-.3-7.7-.7 1-.4-3.2-.7-9.2-.7-6.1 0-11 .3-11 .7 0 .4.7.5 1.6.1 1.4-.5 1.5-.3.5 1.5-.8 1.6-.9 2.2-.1 2.2.6 0 .9.3.7.8-.3.4 6.7.7 15.6.7 13.4 0 16.1.2 16.4 1.5.4 1.3.3 1.3-.6 0-.5-.8-1.3-1.1-1.7-.7-.4.3-.1 1.3.5 2.1.7.8 1.1 2.7.8 4.3-.4 2.6-.4 2.6-.6-.5 0-2-.5-3.1-1.1-2.7-.6.4-.8 1-.5 1.5.3.5-.3 1.8-1.4 2.9-1.1 1.1-1.7 2.2-1.4 2.5.4.3-1.8.6-4.8.5-4.2 0-4.9-.3-3.4-1 1.7-.8 1.7-.9-.5-.4-1.4.2-4 .5-5.7.5-1.8 0-3.3.5-3.3 1 0 .6 3.1 1 7.4 1 4.1 0 7.7.3 7.9.8.3.4-3 .5-7.4.3-6.9-.3-7.9-.1-7.9 1.4s1 1.6 8.9 1.1c7.5-.5 9.1-.3 10.3 1.1 1 1.3 1 1.7.1 2-1.6.6-1.7 3.3-.2 3.3.5 0 .7.5.4 1-.4.6-.3 1 .2.9 2.7-.5 3.1.2 2.1 4.1-.7 2.6-1.6 4-2.7 4-.9 0-1.2-.3-.6-.8.9-.6 1.3-1.5 1.8-4.6.1-.5-.4-1-1.1-1.2-.7-.1-.8 0-.3.2.6.3.8 1.1.5 1.8-.3.9-1.9 1.2-4.7.9-2.3-.3-3.9-.1-3.5.2.4.4.1 1.4-.7 2.1-1.5 1.6-2.9 1.9-2.1.5.4-.5-.3-.7-1.4-.4-1.5.4-1.8.9-1 1.8.6.7 1.9 1.1 2.9.8 1.1-.3 2.8 0 3.9.6 1.4.7 2.3.8 2.7.1.3-.5-.3-1-1.4-1-2.6 0-3.2-1.2-1.5-2.8 1.1-1 1.4-1 1.4 0 0 2.2 3.7 3.8 7 3.2 2.5-.5 2.8-.9 1.9-2.1-1-1.1-.9-1.2.5-.7 1.7.7 2.3-1.1.6-2.1-.5-.3-1-1.1-1-1.6 0-.6.4-.8.8-.5.5.3.9-.8 1-2.4 0-2-.5-3.1-1.9-3.5-1-.4-1.9-1.1-1.9-1.7 0-.6.6-.5 1.6.2.8.8 1.4.9 1.3.4-.4-2.1.2-2.8 1.2-1.4.7 1.1.8.2.3-3.1-.4-3-.2-4.9.5-5.3.6-.4 1.1-2.3 1.1-4.3 0-7.9.8-1.8 2.5 18 .9 11.5 1.5 21 1.2 21.3-.3.4-9.1 2.8-20.7 5.8-.8.3-7.1-1.1-13.8-2.9zm12.3-11.5c-.4-.7.3-.8 2.1-.4 2 .5 2.5.4 1.9-.6-.4-.7-1.8-1-3.6-.6-2.2.4-3.2.1-4.1-1.4-.9-1.3-1.9-1.8-3.5-1.4-1.6.5-2.3.2-2.3-.9 0-.8-.6-1.7-1.2-2-1-.4-1-.7 0-1.8.9-.9 1.2-1 1.2-.1 0 .7.5 1.2 1.2 1.2.6 0 .4-.8-.6-1.9-1-1.1-2.4-1.7-3.2-1.4-1.7.6-1.8 3.5-.2 5.1.9.9.8 1.2-.5 1.2-.9 0-1.7.5-1.7 1.1 0 .6.7.8 1.7.5.9-.4 1.9-.3 2.2.1.5.7 8.4 3.9 10.4 4.2.5 0 .5-.4.2-.9zm-2.5-7c-.7-.4-2-.6-2.9-.5-.9.2-1.9.4-2.3.4-.5.1-.8.5-.8.9s1.6.6 3.6.4c2.2-.3 3.1-.7 2.4-1.2zm-12.7-1c-.3-1 .2-2.6 1.1-3.5 2.1-2.1 2-3.5-.2-3.5-1.3 0-1.9.9-2 3.5-.2 2 0 4 .3 4.5 1 1.6 1.3 1.1.8-1zm70.7 7.2c0-.4-1.7-.7-3.7-.6-2.1 0-4.8-.6-6-1.3-1.2-.8-2.7-1.2-3.3-.8-.5.3-1 .2-1-.3 0-.6.7-1.2 1.5-1.6.8-.3 1.5-.1 1.5.5s.4.8.9.5c.5-.4 1.1-.2 1.3.3.1.4 2.1 1.1 4.3 1.5 3.7.7 3.8.6 2-.7-1-.8-2.4-1.3-3-1-.7.2-1.2-.3-1.2-1.2 0-2 2.4-1.9 3.6.3.9 1.5 1.3 1.4 3.6-1.2 1.4-1.6 2.5-2.5 2.5-1.9 0 .5-.9 1.9-1.9 3-2.1 2.2-1.8 3.5.5 2.6 1-.4 1.2 0 .8 1.1-.6 1.6-2.4 2.2-2.4.8zm4-3.1c0-1.2 2.8-2.2 3.5-1.2.3.5-.2 1.2-1.1 1.5-2.1.8-2.4.8-2.4-.3zm-24-2c0-1 .7-2.1 1.5-2.5 1-.3 1.5.1 1.5 1.3 0 1-.7 2.1-1.5 2.5-1 .3-1.5-.1-1.5-1.3zm75 .5c0-.8.4-1.8 1-2.1.6-.4.7.1.3 1.1-.5 1.3-.3 1.5.7.9.9-.5 1.1-.4.6.3-1 1.7-2.6 1.5-2.6-.2zm4.9-.9c.6-.8.8-1.7.4-2-.3-.4-.1-.7.5-.7 1.8 0 4.2 1.2 4.2 2.1 0 .4-.7.6-1.5.3-.8-.4-1.5-.1-1.5.5s-.7 1.1-1.6 1.1c-1.3 0-1.4-.3-.5-1.3zm-73.7-3.7c-1.5-1.2-1.9-2.1-1.1-2.6.8-.4.7-.9-.2-1.5-1.1-.6-1.1-1.1-.1-2.1.9-.9 1.2-.8 1.3.8.1 1 .2 2.6.3 3.4 0 .8 1.2 1.7 2.6 2 1.8.4 2.1.8 1 1.2-.9.3-2.6-.2-3.8-1.2zm60.9-2.8c-1.3-19.9-1.5-25.2-.9-25.2.5 0 .9 3.9 1 8.8l.2 8.7.6-9c.6-7.9.7-7.2.6 5.3-.1 7.9-.3 14.5-.7 14.7-.3.2-.6-1.3-.8-3.3zm-13.7 1.3c-1-.8-1.4-1.4-.9-1.5 1.5 0 4 1.8 3.4 2.4-.3.3-1.4-.1-2.5-.9zm-55.1-3.2c0-2.1.2-2.8.4-1.5.3 1.2.8 2 1.3 1.7.4-.3.6.4.3 1.5-.9 3.3-2 2.3-2-1.7zm30.7.7c.9-.6 1.4-2.2 1.3-4.2l-.2-3.3.9 2.8c1.1 3.5.3 5.7-1.9 5.7-1.4 0-1.4-.2-.1-1zm61.3-1.1c-.7-.9-.9-2-.3-2.9 1.2-1.9 2.2-.7 1.8 2.1-.2 1.9-.5 2-1.5.8z"/><path d="M436.2 248.6c.2-1.5-.2-2-1.3-1.8-1 .1-1.9-.6-2.2-1.8-.4-1.8-1.3-2-6.9-1.9-4.6.1-5.6.3-3.8.9 2.2.7 1.9.8-1.6.9-2.8.1-4.1-.3-4.1-1.3 0-1.7 15.2-2.3 16.2-.6 1 1.6 5.3 1.2 6.4-.7 1-1.7 1-1.7 1.1 0 0 .9-.5 1.7-1.1 1.7-.8 0-1 1.2-.6 3.3.4 2.5.2 3.4-.9 3.4-.9 0-1.4-.8-1.2-2.1zm49.8 1.3c1.9-.6 1.4-.7-2-.4-3.2.4-4.1.2-3-.5 1-.6 1.1-1 .3-1-.7 0-1.3-.5-1.3-1 0-.7.6-.7 2 0 1.2.6 2 .7 2 .1 0-.5-.6-1.2-1.2-1.4-.8-.3-.6-.6.5-.6.9-.1 1.7.5 1.7 1.3 0 .7.9 1.6 2.1 1.9 2.6.7 1.5 2.7-1.4 2.6-2.1-.1-2-.2.3-1zm4.7.4c-1.7-1.6-.5-3.3 2.3-3.3 1.7 0 3 .5 3 1 0 .6-1.1.8-2.5.4-2-.5-2.4-.3-1.9 1 .6 1.7.2 2.1-.9.9zm-110.4-1.8c-.9-1-.7-1.4 1.3-1.8 2.6-.5 3.1.4 1.2 2.1-.9.7-1.7.6-2.5-.3zm107.7-2.6c0-.9 1.4-1.5 4-1.6 2.2 0 4 .3 4 .8s-1.1.9-2.4.9c-1.3 0-3.1.3-4 .6-1 .4-1.6.1-1.6-.7zm-86.7-2.4c0-.8.4-1.5.8-1.5s.9.7 1.3 1.5c.3.9 0 1.5-.8 1.5-.7 0-1.3-.7-1.3-1.5zm4.3-.4c-.4-.6-.2-1.1.3-1.1.6 0 1.1-.5 1.1-1.1 0-.5-.4-.7-1-.4-.6.4-1-.7-1-2.4 0-4.1 1.6-4 2.3.2.5 3.6-.6 6.7-1.7 4.8zm75.1.2c-.4-.3-.7-1.1-.7-1.7 0-.6.5-.4 1 .4.9 1.3 1 1.3 1 0 0-.8-.4-3-.9-4.7-.6-2-.6-3.5 0-3.8.5-.4.9.7.9 2.2 0 1.6.5 3.4 1.1 4 .7.7.9 1.9.6 2.7-.7 1.7-1.9 2.1-3 .9zm-79.1-5.4c-1.8-3.6-1.1-5.9 1.8-5.9 1.8.1 1.9.2.5 1.3-1.1.9-1.3 2.1-.8 4.5.8 4 .5 4-1.5.1zm13.9 2c-1.7-.7-1.6-.9 1-.8 5 .2 6.6-.1 6.2-.8-.3-.5 3.9-.8 9.4-.8 5.4 0 9.9.3 9.9.8 0 .4-4.2.8-9.2.9-7.6.1-8.4.2-4.8.8 4 .6 3.6.7-3 .8-4.1 0-8.4-.4-9.5-.9zm67.5-6.7c0-.6-.8-1.3-1.7-1.5-1-.3 2-.5 6.6-.6 9-.1 10.9.6 2.6 1-2.8.1-5.6.6-6.2 1.2-.9.6-1.3.6-1.3-.1zm-99-1.9c0-.8-5.2-1.1-15.7-1.2-8.6-.1-15.9-.4-16.2-.6-.3-.3 7.5-.5 17.3-.4 9.8.1 17.4.4 17 .8-.5.3-1.2 1-1.6 1.5-.5.5-.8.5-.8-.1zm85.3-2.8c0-.8.9-1.5 1.9-1.5 1 0 1.8.7 1.8 1.5s-.8 1.5-1.8 1.5-1.9-.7-1.9-1.5zm-59.1-3.1c-1-1.2-1-1.4.2-1.4 1.7 0 3 1.6 1.9 2.3-.5.3-1.4-.1-2.1-.9zm5.2.9c1.5-.4 1.6-.7.5-1.4s-1.1-.9-.1-.9c.7 0 2 .7 2.8 1.5 1.4 1.3 1.2 1.5-1.8 1.4-2-.1-2.5-.3-1.4-.6zm5.9-.5c.5-1.8 18.9-1.8 19.3 0 .1.7 0 .8-.3.2-.6-1.3-16.3-1.3-16.3 0 0 .6-.7 1-1.6 1-.9 0-1.4-.6-1.1-1.2zm-.8-2.8c-13.6-.4-18-.7-12.5-1l8.5-.4-8.5-.6-8.5-.7 9.1.1c6.2.1 9.5-.3 10.3-1.1.8-.9 4.6-1.3 12-1.3 11.1 0 12.9.6 12.8 4.1 0 .9-.5 1.5-1.1 1.5-.6-.1-10.5-.3-22.1-.6zm21.8-2.5c-.4-1.2-2.7-1.5-11.2-1.4-6.8 0-9.9.3-8.6.9 1.8.8 1.6.9-1 1.1-1.6.2 2.2.5 8.5.8 6.3.4 11.8.5 12.2.3.4-.1.5-.9.1-1.7zm-34.5-19.8c.6-.7 1.2-2.9 1.3-4.8.2-2.2.8-3.6 1.6-3.6.7 0 1.3.4 1.3.9 0 .4-.4.8-1 .8-1.2 0-1.3 4.7-.1 5.4 1 .7 2.4-3.1 2.1-5.9-.3-3 1.6-.6 2.3 3 .4 1.7.4 2.4.1 1.8-.8-1.7-2.4-1.6-2.4.1 0 1.9 14.4 2.1 17 .3 1.9-1.3 2-1.6 2-4.7 0-2.8 2.8-2.5 3.2.3.2 1.3 1.1 2.3 2.4 2.5 1.2.2 2.6 1.4 3.2 2.7l1.1 2.3-17.6.2c-14.6.1-17.4-.2-16.5-1.3zm93.7-73.7c-4.4-2.2-8.6-4-9.2-4-.7 0-1.3-.4-1.3-1 0-.5-.7-1-1.5-1s-1.5-.4-1.5-.9-1.6-1.2-3.5-1.5c-2-.4-7.1-2.5-11.5-4.7-4.3-2.1-8.2-3.9-8.5-3.9-1.3 0-12.1-5.4-14.5-7.2-1.4-1.1-3.9-4.8-5.5-8.3l-3-6.3 7.9-.6c7.4-.6 8.1-.5 11.5 1.9 2.1 1.4 4 2.5 4.5 2.5.7 0 10.8 6.3 12.9 8.1.7.5 4.1 2.8 7.7 5.2 3.6 2.3 6.7 4.5 6.8 5 .2.4 1 .7 1.8.7s1.4.5 1.4 1 .3.9.8.8c.4-.1 3.5 1.4 7 3.5 3.5 2 6.7 3.7 7.3 3.7.5 0 .9.5.9 1 0 .6.7 1 1.5 1s1.5.2 1.5.5c0 1-4.3 8.5-4.9 8.5-.3 0-4.2-1.8-8.6-4z"/></g><path d="M335.5 357c-.4-.6 1.2-1 3.9-1 2.5 0 4.6.5 4.6 1 0 .6-1.8 1-3.9 1-2.2 0-4.3-.4-4.6-1zm12.8.3c.8-.7 10.8-.5 11.6.2.2.3-2.4.5-5.9.5-3.5 0-6-.3-5.7-.7zm43.7-.3c0-.5 2.4-1 5.3-1 3.7 0 4.8.3 3.7 1-2 1.3-9 1.3-9 0zm48 0c0-.6 3.3-1 8-1s8 .4 8 1-3.3 1-8 1-8-.4-8-1zm-83.1-.7c-4.4-.4-4.7-.6-5.7-4.2-1.6-5.1-3.8-6.9-9.2-7.4-2.5-.2-.2-.4 5.1-.5 8.9-.2 9.7 0 11.8 2.2 1.8 1.9 4.4 11.1 3 10.4-.2-.1-2.5-.3-5-.5zm142.9 0c2.3-.2 6.1-.2 8.5 0 2.3.2.4.4-4.3.4s-6.6-.2-4.2-.4zm8.8-35.3c-1.6-1-3.3-1.7-3.8-1.4-.4.3-.8.1-.8-.4s-1.3-1.5-3-2.2c-1.6-.7-3-1.8-3-2.4 0-.6 1.8-4.4 4-8.4l4-7.4-8.5-9.1c-4.7-5.1-8.2-9.3-7.8-9.4 11.6-3.1 12.2-3.4 12.8-6.4.7-3 .7-3 2.7-1.2 1.2 1 6.1 6.2 10.9 11.5 7.1 7.8 8.9 10.4 8.9 12.8 0 2.9-11.5 26.1-12.8 25.9-.4 0-2-.9-3.6-1.9zm-152.4-40.5c-6.8-1.8-12.6-3.6-13-3.9-.3-.3-1.1-7.2-1.8-15.3-.8-8.2-2.1-22.4-3-31.7-1.5-15-1.5-17.1-.2-18 1.2-.9-.7-2.9-10.4-10.6-6.6-5.2-12.3-9.9-12.6-10.5-.4-.5-1-4.1-1.3-8-.4-3.8-1-8.9-1.4-11.2l-.8-4.3h17.6l-.6 4c-1.3 9.5-.4 11.2 10.9 20.5 10 8.2 12.4 9.7 12.4 7.5 0-2.4 3-.7 6.1 3.5 1.9 2.4 3.8 4.5 4.2 4.5.4 0 2-2 3.5-4.5 2.7-4.4 2.7-4.5 7.2-3.9 7.3 1 10.7 2.8 11.4 6.1.8 3.8 2.5 19.7 2.2 20.1-.2.1-8.6.5-18.7.7-15.6.4-18.4.7-18.3 2 .3 6-1 5.5 15.4 5.5 16.3 0 15.9-.1 14.4 5.6-.5 2-1.5 2.2-10 2.9l-9.4.7v6.8h18.6l-.6 5.2c-.5 5.2-.5 5.2-5.1 6.6-4 1.3-5.2 1.3-9 0-3.7-1.2-4.4-1.9-4.7-4.4-.3-2.6-.7-2.9-3.5-2.8-2.9.1-3.2.4-3.5 3.5-.6 6.6.9 8.3 9 10.7l7.3 2.1 8-2.3 8-2.3 1.4-15.2c.7-8.3 1.5-15 1.6-14.9.5.6 3.7 41.9 3.2 42.4-.3.4-9.1 2.8-20.7 5.8-.8.3-7.1-1.1-13.8-2.9zm133.2-84.4c.3-.4-1.9-1.4-5-2-7.7-1.8-10.7-4.5-10.6-10 .1-2.4.3-4.6.6-4.9.3-.3.6 1.3.6 3.5 0 3.3.6 4.6 2.9 6.6 3.2 2.7 14.5 5.3 18 4.2 4.2-1.3 2 .4-2.4 1.9-2.5.8-4.3 1.1-4.1.7zm9.1-18.1c-2.9-1.1-4.8-3.7-3.9-5.2.4-.7-.3-.3-1.5 1-1.2 1.2-2.8 2.2-3.6 2.2-3 0-6.6-2.1-7.6-4.4-.8-1.6-2.3-2.6-4.5-3.1-3.8-.7-3.7.2-.8-11.5 2.5-10.4 9.7-13.4 21.8-9.2 6.7 2.4 11.2 8.3 9.8 13.3l-.9 3.4-.8-2.7c-1.3-4.8-2.7-5.1-9.1-1.9-5.9 2.9-7.8 3.4-12.2 3.2-2-.1-2.1-.4-1.2-2.1.9-1.7.8-2-1-2-1.5 0-2.6 1.1-3.6 3.5-.7 1.9-1.4 3.7-1.4 4 0 .3 2 .5 4.4.5 2.4 0 6.6.6 9.2 1.4 2.7.8 6.8 1.8 9.1 2.3l4.2 1 1-3.6 1-3.6-.4 3.6c-.4 2.5-.1 4 .9 4.8 1.3 1.1 1.2 1.6-1.1 3.7-2.7 2.5-4.4 2.8-7.8 1.4zm5.1-3.2c-.4-2.9-6.4-4.5-7.3-2-.8 1.8 2.2 4.2 5.4 4.2 1.8 0 2.2-.5 1.9-2.2zM492 172c0-1.3-.9-2.2-2.7-2.6-1.6-.3-3.4-.7-4.1-1-.7-.2-1.6.4-1.9 1.3-.8 2.1 2.2 4.3 5.9 4.3 2.1 0 2.8-.5 2.8-2zm-179.8-33.2c-1.7-1.7-1.5-4.3.3-5.8 1.7-1.5 1.7-1.5 3.3 2.4 1.1 2.4 1.1 3.1 0 3.7-1.7 1.2-2.2 1.1-3.6-.3zm17.2-3.3c-.4-1-1.4-1.5-2.4-1.2-1.9.5-2.9-2.2-3.6-9.6-.4-4.3 1.8-6.1 4-3.2 1.2 1.7 1.4 1.7 4.7-.1 1.9-1 3.5-2.2 3.7-2.6.2-.4.9-.5 1.7-.2.7.3 1.6 0 2.1-.7.5-.8.3-1-.7-.4-1.2.8-1.2.6 0-.9.8-.9 2-1.5 2.8-1.2.8.3 1.1.1.8-.4-.3-.6.1-1 1-1s2.5-.9 3.7-2c1.2-1.1 5.3-3.9 9.2-6.2 3.9-2.2 10-6 13.6-8.3 3.6-2.3 8.3-5.2 10.5-6.4 2.2-1.1 3.5-2.1 3-2.2-.6 0 .1-.5 1.5-1 3-1.2 17-.1 17 1.3 0 .6-1.1 3.2-2.5 6-2.6 5.2-5.5 9.7-5.5 8.6 0-.3-3.9 1.3-8.7 3.6-4.9 2.4-12.4 5.8-16.8 7.7-4.4 1.9-8.2 3.6-8.5 3.9-.8.8-8 4-9.1 4-.6 0-3.7 1.3-7.1 3-3.3 1.6-6.5 2.7-7.1 2.3-.7-.3-.9-.3-.5.2.4.4 0 1.4-.9 2.1-1 .6-1.8 2.3-1.8 3.5 0 2.8-3.2 3.8-4.1 1.4zm172.1-8.5c-4.4-2.2-8.6-4-9.2-4-.7 0-1.3-.4-1.3-1 0-.5-.7-1-1.5-1s-1.5-.4-1.5-.9-1.6-1.2-3.5-1.5c-2-.4-7.1-2.5-11.5-4.7-4.3-2.1-8.2-3.9-8.5-3.9-1.3 0-12.1-5.4-14.5-7.2-1.4-1.1-3.9-4.8-5.5-8.3l-3-6.3 7.9-.6c7.4-.6 8.1-.5 11.5 1.9 2.1 1.4 4 2.5 4.5 2.5.7 0 10.8 6.3 12.9 8.1.7.5 4.1 2.8 7.7 5.2 3.6 2.3 6.7 4.5 6.8 5 .2.4 1 .7 1.8.7s1.4.5 1.4 1 .3.9.8.8c.4-.1 3.5 1.4 7 3.5 3.5 2 6.7 3.7 7.3 3.7.5 0 .9.5.9 1 0 .6.7 1 1.5 1 1.9 0 1.9 1.4.1 3.2-.8.8-1.5 2.3-1.7 3.3-.6 2.9-1.9 2.7-10.4-1.5z" fill="#e1e1e1"/><path d="M356.9 356.2c-4.4-.3-4.7-.5-5.3-3.6-.6-3.2-3.6-6.8-6.6-7.9-.8-.3 1.3-.6 4.6-.6 4.7-.1 6.7.4 8.7 1.9 2.4 1.9 4.5 7.6 3.6 9.7-.2.4-2.5.7-5 .5zm-.7-75.7c-6.8-1.8-12.6-3.6-13-3.9-.3-.3-1.1-7.2-1.8-15.3-.8-8.2-2.1-22.4-3-31.7-1.5-15-1.5-17.1-.2-18 1.2-.9-.7-2.9-10.4-10.6-6.6-5.2-12.3-9.9-12.6-10.5-.4-.5-1-4.1-1.3-8-.4-3.8-1-8.9-1.4-11.2l-.8-4.3h17.6l-.6 4c-1.3 9.5-.4 11.2 10.9 20.5 10 8.2 12.4 9.7 12.4 7.5 0-2.4 2.8-.6 6.4 4.1l3.9 5.1 3.5-5.1c3.4-4.9 3.8-5.1 7.1-4.5 10.7 1.7 11.5 2.6 12.6 13.9.3 3.9.9 8.2 1.1 9.8l.6 2.7H349v2.4c0 5.6 0 5.6 16.2 5.6h15l-.6 2.3c-.3 1.2-.6 3-.6 4 0 1.5-1.1 1.7-9.5 1.7H360v8h18v4.3c0 5.3-.6 6-5.4 7.5-2.9.8-5.1.8-8.2.1-3.7-1-4.3-1.5-4.9-4.5-.5-3.1-.9-3.4-4.1-3.4h-3.5l.3 6.2.3 6.2 8.1 2.3 8 2.3 8-2.2 7.9-2.3 1.6-15c.9-8.2 1.7-14.2 1.8-13.1 0 1 .8 10.4 1.7 20.8.9 10.4 1.4 19.1 1.1 19.4-.3.4-9 2.8-20.7 5.8-.8.3-7.1-1.1-13.8-2.9zm143.3-102.2c-3-.8-4.5-2.3-4.5-4.6 0-2 0-2-2.1.2-1.7 1.8-2.7 2.1-5.2 1.5-4.2-.8-4.7-1.2-5.7-3.9-.6-1.5-2-2.5-4.4-2.9-4-.8-3.9.1-1-11.6 2.5-10.4 9.7-13.4 21.8-9.2 6.7 2.4 11.2 8.3 9.8 13.3l-.9 3.4-.8-2.7c-1.3-4.8-2.7-5.1-9.1-1.9-5.9 2.9-7.8 3.4-12.2 3.2-2-.1-2.1-.4-1.2-2.1.9-1.7.8-2-1-2-1.5 0-2.6 1.1-3.6 3.5-.7 1.9-1.4 3.6-1.4 3.8 0 .2 2.9.7 6.4 1 3.6.3 7.3 1 8.3 1.6 1 .5 4.1 1.3 7 1.8l5.2.9 1-3.5 1-3.6-.4 3.6c-.4 2.5-.1 4 .9 4.8 1.3 1.1 1.2 1.6-1.1 3.7-2.6 2.4-3.2 2.6-6.8 1.7zm4.5-3.2c0-2.2-.4-2.6-4.3-3.5-2-.5-2.9-.2-3.3.9-.9 2.3 1.4 4.5 4.7 4.5 2.2 0 2.9-.5 2.9-1.9zm-12-1.5c0-.2.3-1.1.6-1.9.4-1-.7-1.7-4-2.6-2.5-.6-4.7-1.1-5-1.1-1.1 0-.6 3.6.6 4.8 1.1 1.1 7.8 1.8 7.8.8zm-180.7-36.2c-.7-1.8.7-4.6 2.5-5.2.7-.2 1.2.5 1.2 1.7 0 1.1.5 2.3 1 2.6 1.9 1.1 1 2.5-1.5 2.5-1.5 0-2.8-.7-3.2-1.6zm18-2c-.3-.9-1.3-1.4-2.4-1.1-1.5.4-1.9 0-1.9-1.8 0-1.3-.4-2.6-.8-2.9-.5-.3-.8-2.4-.8-4.8.2-6.9 2.6-6.1 7 2.2 2.1 3.9 3.5 7.8 3.2 8.6-.7 1.9-3.5 1.8-4.3-.2z" fill="#02aade"/><g fill="#0278b7"><path d="M352 352.4c0-1.5-1.2-3.8-2.9-5.5l-2.9-2.9h3.9c5.1 0 9.7 2.4 10.9 5.6 1.9 4.8 1.4 5.4-4 5.4-4.7 0-5-.2-5-2.6zm4.2-71.9c-6.8-1.8-12.6-3.6-13-3.9-.3-.3-1.1-7.2-1.8-15.3-.8-8.2-2.1-22.4-3-31.7-1.4-14.9-1.5-17.1-.2-18 1.2-.9-.8-3-10.9-11-7.2-5.8-12.5-10.7-12.8-12-.2-1.1-.6-5.1-.8-8.7l-.5-6.7 4.6-.6c6.5-.9 11.4-.7 10.8.3-.3.5-.3 3 0 5.5.6 4.3 1.2 5 11 13.1 10.3 8.4 12.4 9.7 12.4 7.3 0-.7 1.1 1.6 2.3 5.2 2.2 6.3 2.3 6.4 5.7 6.2 8.1-.5 8.3-.6 10-5.8 1.9-5.5 3.6-6.3 9.6-4.4 4 1.4 4.9 3 5.9 11.8l.7 6.2h-17.1l-.3 3.3-.3 3.2-9.8.3-9.8.3.3 4.2.3 4.2 9.8.3 9.8.3-.3 3.2c-.3 3.1-.5 3.2-5 3.5-4.2.3-4.8.6-4.8 2.5 0 5.6 1 6.7 5.6 6.7h4.4v5.5c0 6-.4 6.3-5.9 4.4-2.5-.9-3.1-1.6-3.1-4 0-2.8-.2-2.9-4.6-2.9h-4.7l.7 4.6c.3 2.6.6 5.5.6 6.4 0 1.4 2 2.3 8.5 4.1l8.5 2.4v3.8c0 3.2.3 3.7 1.8 3.3.9-.3 5.6-1.5 10.4-2.7 7.2-1.7 8.8-2.5 9.1-4.3.2-1.1.5 0 .6 2.6l.1 4.7-4.2 1.1c-2.4.6-6.8 1.8-9.8 2.6-3 .8-6.2 1.7-7 1.9-.8.2-7.1-1.2-13.8-3zm148.4-106.2c.1-2.1.7-5.1 1.3-6.8 1.1-3 1.1-3 .6.6-.4 2.5-.1 4 .9 4.8 1.3 1.1 1.2 1.5-.5 3.2-2.6 2.6-2.7 2.5-2.3-1.8zm-8.9 2c-.4-.3-.7-1.3-.7-2 0-2-2.6-4.3-5.8-5.3-2.1-.7-2.3-.8-.6-.9 1.1-.1 2.9.5 4 1.3 1 .8 2.8 1.3 3.9 1.2 1.1-.2 1.4-.1.7.1-.9.3-1.2 1.5-1 3.4.5 3.1.5 3.2-.5 2.2z"/><path d="M483.8 173.9c-1-.5-1.8-1.8-1.8-2.8 0-1.4-1-2-4-2.5-4.5-.7-4.4.3-1.4-11.6 2.5-10.4 9.7-13.4 21.8-9.2 6.7 2.4 11.2 8.3 9.8 13.3l-.9 3.4-.8-2.7c-1.3-4.8-2.7-5.1-9.1-1.9-5.9 2.9-7.8 3.4-12.2 3.2-2-.1-2.1-.4-1.2-2.1.9-1.7.8-2-1-2-1.5 0-2.6 1.1-3.6 3.6-.8 2-1.3 3.8-1 4.1.2.3 2.2.5 4.3.6 2.1 0 3 .2 2.1.4-1.1.3-1.8 1.4-1.8 2.8 0 1.9.7 2.7 3.3 3.4 1.9.6 2.4.9 1.2 1-1.1 0-2.8-.4-3.7-1zm-172.1-35.6c-1.1-1-.8-4.1.4-4.9 1.3-.8 2.4.3 3.4 3.4.5 1.7.2 2.2-1.3 2.2-1 0-2.2-.3-2.5-.7zm17.7-2.8c-.4-.8-1.2-1.5-1.8-1.5-3.2 0-5.7-13.1-2.6-13.7 1.7-.4 9.5 14 8.5 15.7-.9 1.5-3.5 1.2-4.1-.5z"/></g><path d="M435.6 345.3c-1-4.7-9.5-59.7-9.3-60 .1-.1 4.4-1.3 9.4-2.6l9.2-2.5.5 2.7c.3 1.4.8 4.9 1.2 7.6l.7 5 2.8-8.4c1.6-4.6 3-8.6 3.2-8.8.4-.3 15.8 3.6 16.4 4.1.3.3-11.7 36.9-12.2 37.5-.2.2-1.8-.1-3.4-.7-1.7-.6-3.1-.7-3.1-.2 0 .4.9 6.1 2 12.5s2 12.2 2 12.9c0 .8-2.2 1-7.5.8-6.1-.3-8-.1-9.5 1.3-1.7 1.6-1.8 1.5-2.4-1.2zm69.9-25.9c-3.3-1.8-6.4-3.5-7-3.8-.5-.2.9-4.1 3.2-8.6l4.3-8.2-8.5-9.1c-4.7-5.1-8.2-9.3-7.8-9.4 11.6-3.1 12.2-3.4 12.8-6.4.7-3 .7-3 2.7-1.2 1.2 1 6.1 6.2 10.9 11.5 7.1 7.8 8.9 10.4 8.9 12.8 0 3-11.5 26.1-12.8 25.9-.4-.1-3.4-1.6-6.7-3.5zM329 202c-6.9-5.5-13-10.8-13.7-11.7-.6-1-1.3-5.2-1.5-9.3l-.3-7.5 7.2-.3 7.2-.3.7 5c.6 4.9.9 5.2 10.8 13.4 5.5 4.6 10.8 8.6 11.7 8.9 1 .4 2.4 2.9 3.3 5.5 1.8 5.4 1.1 5.1 12.3 4.4 1.7-.1 2.5-1.2 3.8-5.6 1.7-6 3-6.6 9.4-4.4 3.5 1.2 5.1 4.1 5.1 9v2.9h-43.5L329 202zm175.9-25.4c.9-1 .9-1.5 0-1.8-.8-.3-.6-1.8.5-5.3 1.3-4.1 1.5-4.4 1.1-1.4-.4 2.5-.1 4 .9 4.8 1.3 1.1 1.2 1.5-.5 3.2-2.2 2.2-3.7 2.6-2 .5zm-29.2-8.4c-1.8-.4-1.8-.3.9-11.2 2.5-10.4 9.7-13.4 21.8-9.2 6.7 2.4 11.2 8.3 9.8 13.3l-.9 3.4-.8-2.7c-1.3-4.8-2.7-5.1-9.1-1.9-5.9 2.9-7.8 3.4-12.2 3.2-2-.1-2.1-.4-1.2-2.1.9-1.7.8-2-1-2-2.7 0-5.9 6.8-3.8 8.2.7.4 2.4.6 3.8.2 1.4-.3 2.1-.2 1.7.2-.9.9-6.1 1.2-9 .6z" fill="#164771"/><path d="M405.6 346.4c-2.4-1.7-12.8-1.9-15.8-.3-1.9 1-2 .9-1.5-1.2.8-3.4 8.4-52.2 9.3-59.2.5-4.3 1-5.7 2-5.3.7.3 4.9 1.5 9.4 2.7 6.1 1.7 8 2.6 8 4s-8.4 55.7-9.2 59.6c-.2.8-.8.8-2.2-.3zm30-1.1c-1-4.7-9.5-59.7-9.3-60 .1-.1 4.4-1.3 9.4-2.6l9.3-2.5.5 3.7c.4 2 1 5.3 1.3 7.5l.7 3.8 2.8-8.6c1.8-5.5 3.3-8.6 4.3-8.6.8 0 1.4.5 1.4 1.1 0 .5.4.8.8.5.7-.4 12.2 2.1 12.9 2.8.3.3-11.7 36.9-12.2 37.5-.2.2-1.8-.1-3.4-.7-1.7-.6-3.1-.7-3.1-.2 0 .4.9 6.1 2 12.5s2 12.2 2 12.9c0 .8-2.2 1-7.5.8-6.1-.3-8-.1-9.5 1.3-1.7 1.6-1.8 1.5-2.4-1.2zm69.9-25.9c-3.3-1.8-6.4-3.5-7-3.8-.5-.2.9-4.1 3.2-8.6l4.3-8.2-8.5-9.1-8.5-9.1 4.2-1.3c2.4-.7 5.1-1.1 6.1-.9 1 .3 1.4 0 1-.7-.4-.7 0-.8 1.1-.4 1 .4 1.5.3 1.1-.3-.3-.5-.3-2.1.1-3.5.6-2.5.7-2.5 2.7-.8 1.1 1 6 6.2 10.8 11.5 7.1 7.8 8.9 10.4 8.9 12.8 0 3-11.5 26.1-12.8 25.9-.4-.1-3.4-1.6-6.7-3.5zM373.3 199.3c.9-.2 2.5-.2 3.5 0 .9.3.1.5-1.8.5-1.9 0-2.7-.2-1.7-.5zm132.2-27.5c-.3-.7-.1-2.6.4-4.3.9-2.8.9-2.7.8 1.2-.2 4.5-.5 5.1-1.2 3.1zm-28.5-3.7c0-.8-.6-1.1-1.5-.7-1.6.6-1.6.6 1.1-10.4 2.5-10.4 9.7-13.4 21.8-9.2 6.7 2.4 11.2 8.3 9.8 13.3l-.9 3.4-.8-2.7c-1.3-4.8-2.7-5.1-9.1-1.9-5.9 2.9-7.8 3.4-12.2 3.2-2-.1-2.1-.4-1.2-2.2 1-1.8.9-2-1.2-1.7-1.8.2-2.7 1.5-4 5.3-.9 2.8-1.7 4.4-1.8 3.6z" fill="#3a4970"/><path d="M435.6 344.8c-.4-1.8-2.4-15.2-4.6-29.8-2.2-14.6-4.3-27.1-4.5-27.8-.6-1.6 1.9-2.7 11.2-5.1l7.1-1.8.6 4.6c.4 2.5 1.1 6.9 1.6 9.6 1.4 7.6 3.8 22.1 5 31 .7 4.4 1.6 10.4 2.1 13.4s.9 5.7.9 6.1c0 .3-3.4.4-7.5.2-6.1-.3-8-.1-9.5 1.3-1.8 1.6-1.9 1.6-2.4-1.7zm-46.5-3.1c.5-2.9 2.7-17.1 4.9-31.7 2.3-14.6 4.3-27.2 4.6-28.1.4-1.4 1.4-1.3 9.4.9l8.9 2.5-.4 3.6c-.2 2-2.4 15.9-4.7 30.9-3.6 23.2-4.5 27.1-5.8 26.5-2.6-1.2-13.7-1.5-15.8-.4-1.8.9-1.8.7-1.1-4.2zm95-147.7c-8.1-2.3-10.4-4.5-10.3-10 .1-2.3.3-4.5.6-4.8.3-.3.6 1.3.6 3.5 0 3.3.6 4.6 2.9 6.6 3.2 2.7 14.3 5.3 18.3 4.3 1.6-.4 1.4-.2-.7.9-3.7 1.8-3.6 1.8-11.4-.5zm-7.1-25.9c0-.7-.6-1.1-1.4-.8-1.1.4-1.1-.5 0-5.6 1.9-9.2 3-11.5 6.6-13.8 6.4-3.9 19.2-.8 24 6 2.2 3.1 2.6 4.3 1.9 6.7l-.8 2.9-1.1-2.7c-.6-1.4-1.5-2.9-2-3.2-.5-.3-3.6.7-6.8 2.3-5.9 2.9-7.8 3.4-12.2 3.2-2-.1-2.1-.4-1.2-2.2 1-1.8.9-2-1.2-1.7-1.8.2-2.7 1.5-4 5.3-.9 2.8-1.7 4.4-1.8 3.6z" fill="#383838"/><path d="M388.5 346c.5-.8.8-2.5.6-3.7-.3-3.1.5-2.9 1.1.2.3 1.5-.1 3-1 3.7-1.3 1.1-1.4 1.1-.7-.2zm60.6-21.7c-.1-2.3.3-4.4.7-4.7.4-.2.6 1.2.4 3.2-.5 5.6-1 6.2-1.1 1.5zm-50.6-38.4c-.4-1.1-.4-2.3-.1-2.6.3-.4.6.1.6.9 0 1.1.6 1.4 2 1.1 2.4-.6 2.7 1.2.4 2.1-2.2.8-2.2.8-2.9-1.5zm10 1.2c-1.7-.7-1.6-.9 1.3-1.6 1.8-.4 3.6-.4 3.9-.1.4.3-.5.6-1.8.6-1.9 0-2.1.2-.9 1 1.8 1.1.3 1.2-2.5.1zM441 282c-1.3-.9-1.3-1 0-1 .8 0 2.2.5 3 1 1.3.9 1.3 1 0 1-.8 0-2.2-.5-3-1zm45.3-87.4c-2.4-.5-4.3-1.4-4.3-1.9 0-.8 4.5-.2 8.4 1.3 3.3 1.2.3 1.6-4.1.6zm-8.8-3.3c-1.1-.8-1.9-1.9-1.7-2.4.1-.5-.2-.9-.8-.9-.6 0-.9-2.1-.8-4.7l.1-4.8.4 4.2c.3 3.2 1.1 4.8 3.4 6.7 3.2 2.7 2.7 4.4-.6 1.9zm-1.7-24.8c-.7-.7.8-10.4 2.1-13.7.6-1.6 2.5-3.7 4.3-4.8 3.5-2.1 10.3-2.7 11.3-.9.4.6 1.2.8 1.9.6 1.8-.7 6.8 1.7 9.5 4.6 1.5 1.6 2.5 4.2 2.8 6.9l.4 4.3-2-3.2c-2.4-3.9-2.6-3.9-6.9-1.3-1.9 1.2-3 1.5-2.6.9.4-.6-.7-.1-2.4 1.1-2.7 2-3.3 2.1-4.9.9-1.1-.9-1.4-1-.9-.1.9 1.5-.6 1.6-2.2 0-.9-.9-1.2-.9-1.2 0 0 .7-.5 1.2-1 1.2-.7 0-.7-.6 0-2 .9-1.7.8-2-.9-2-1.1 0-2.5.8-3 1.8-.8 1.4-1.1.9-1.1-2.3-.1-3.7-.2-3.8-1.1-1.5-.6 1.4-.7 3.3-.1 4.5 1.3 3.2-.1 6.9-2 5z" fill="#363030"/></svg>